<svg width="537" height="531" viewBox="0 0 537 531" fill="none" xmlns="http://www.w3.org/2000/svg">
<path d="M495 322.5C495 437.099 402.099 530 287.5 530C172.901 530 80 437.099 80 322.5C80 207.901 172.901 115 287.5 115C402.099 115 495 207.901 495 322.5ZM127.891 322.5C127.891 410.65 199.35 482.109 287.5 482.109C375.65 482.109 447.109 410.65 447.109 322.5C447.109 234.35 375.65 162.891 287.5 162.891C199.35 162.891 127.891 234.35 127.891 322.5Z" fill="url(#paint0_linear_22_377)"/>
<rect x="216" y="36" width="288" height="280" rx="10"/>
<rect y="231" width="400" height="300" rx="10"/>
<path d="M502.015 24.0084L501.648 24.4053L501.101 24.3117L501.097 24.6034L500.432 24.8192L500.053 24.5642L499.97 24.9207L499.172 24.6775L499.271 24.4563L499.013 24.2184C499.186 23.8271 499.137 23.3638 499.536 23.1085C499.325 22.8779 499.443 22.5998 499.536 22.4401C499.756 22.0613 499.752 21.5689 500.019 21.2682C500.331 20.9169 500.383 20.48 500.575 20.1005C500.805 19.645 501.037 19.1721 501.23 18.6876C501.417 18.2146 501.58 17.6858 501.962 17.2975C502.18 16.3262 502.816 15.5524 503.237 14.6784C503.564 13.9974 503.856 13.2752 504.343 12.6643C504.512 12.4518 504.481 12.0715 504.977 12.145C504.84 11.7389 504.851 11.4207 505.135 11.1334C505.333 10.9199 505.492 10.6738 505.605 10.4062C505.916 9.7227 506.365 9.12605 506.749 8.48886C507.102 7.9041 507.534 7.36644 507.872 6.78648C508.328 6.00461 509.017 5.45916 509.568 4.78064C509.665 4.66106 509.864 4.62992 509.991 4.52707C510.129 4.41601 510.219 4.18948 510.363 4.15761C510.549 4.11632 510.555 3.96478 510.66 3.88822C510.815 3.77501 510.981 3.67564 511.174 3.54904C511.337 3.58687 511.569 3.42193 511.779 3.61699C511.832 3.66583 512.027 3.65854 512.07 3.60605C512.396 3.20907 512.787 3.40827 513.199 3.48694C513.767 3.89402 513.895 4.47155 513.675 5.15271C513.648 5.24377 513.61 5.33085 513.56 5.41158C513.357 5.71542 513.087 5.99018 512.955 6.32085C512.808 6.6845 512.558 6.93946 512.315 7.21594C512.082 7.48144 511.726 7.71917 511.654 8.02392C511.574 8.36293 511.117 8.45758 511.22 8.84873C510.872 8.85325 510.989 9.28299 510.738 9.37576C510.726 9.71192 510.424 9.86519 510.28 10.1144C510.147 10.3451 509.99 10.5649 509.869 10.7928C509.465 11.5355 509.008 12.2484 508.502 12.9263C508.49 13.4102 507.926 13.5742 507.868 14.0526C507.817 14.4634 507.48 14.764 507.279 15.109C507.05 15.5005 506.79 15.8923 506.536 16.2773C506.298 16.6367 506.101 17.0233 505.869 17.3911C505.528 17.9333 505.322 18.5592 504.915 19.0709C504.967 19.4918 504.468 19.6199 504.427 20.0277C504.393 20.37 504.143 20.6927 503.956 20.9736C503.501 21.6591 503.305 22.4555 502.894 23.1531C502.797 23.3183 502.703 23.4849 502.591 23.6773C502.434 23.5714 502.316 23.4916 502.13 23.366L502.015 24.0084Z" fill="#003BC5"/>
<path d="M517.108 20.5091C517.106 20.4498 517.103 20.3988 517.101 20.348L517.684 20.4479C517.616 20.3185 517.572 20.2354 517.502 20.1025C517.675 19.9563 517.844 19.6981 518.046 19.6686C518.374 19.6208 518.269 19.2942 518.479 19.1837C518.669 19.0835 518.799 18.8024 518.984 18.7722C519.285 18.7229 519.373 18.4734 519.573 18.3436C519.783 18.2229 519.999 18.1144 520.221 18.0187L520.433 17.5698L520.999 17.7173C520.866 17.4879 520.822 17.4123 520.751 17.2891C521.525 17.047 521.928 16.2726 522.665 15.9963C522.736 16.0375 522.798 16.0732 522.961 16.1675C522.869 15.9983 522.83 15.9265 522.785 15.8429L523.28 15.5278C523.377 15.5993 523.475 15.6713 523.617 15.7768L523.644 15.5498L523.974 15.4255L523.837 15.1071C524.042 15.0632 524.247 15.0197 524.489 14.9678C524.547 15.0103 524.645 15.0825 524.771 15.1759L524.938 14.5969C525.406 14.6635 525.911 14.3829 526.412 14.6113L526.434 14.8636C526.642 14.8553 526.657 14.7782 526.521 14.4399C526.55 14.3996 526.582 14.3614 526.616 14.3256C526.631 14.3116 526.663 14.3155 526.744 14.3011C526.792 14.4106 526.845 14.5325 526.905 14.6671L527.372 14.851L526.936 15.0762C527.102 15.166 527.225 15.2328 527.433 15.3458L526.801 15.6137L526.77 15.3996L526.32 15.5661L526.699 15.916L526.552 16.4348L525.459 16.9379C525.393 17.1067 524.892 17.5258 524.595 17.6511L524.593 17.9011L524.074 18.1086L524.051 17.8945C524.01 17.9024 523.936 17.8973 523.925 17.9217C523.794 18.198 523.771 18.5513 523.337 18.5833C523.256 18.5892 523.191 18.8097 523.12 18.9323C522.798 19.4932 522.339 19.8574 521.693 19.9536C521.637 20.0631 521.596 20.2031 521.506 20.2964C521.401 20.4061 521.135 20.4905 521.144 20.559C521.19 20.9137 520.863 20.7745 520.746 20.8985C520.635 21.0283 520.497 21.1316 520.342 21.2011C520.04 21.3281 519.779 21.5677 519.522 21.7844C518.659 22.512 517.733 23.161 516.755 23.7238C515.996 24.1608 515.259 24.6403 514.458 24.994C513.918 25.2324 513.358 25.5169 512.788 25.5692C512.273 25.6167 511.739 25.7433 511.172 25.6286C511.152 25.5527 511.128 25.4608 511.1 25.355L510.9 25.3487L510.89 24.5645C511.101 24.4404 511.339 24.328 511.68 24.4559C511.558 24.3036 511.469 24.1928 511.373 24.0732L511.521 23.9128C511.62 23.9526 511.708 23.9875 511.797 24.0232L511.852 23.7181L512.131 23.6666L512.13 23.1636C512.425 23.1825 512.663 23.2264 512.896 23.2043C513.122 23.1829 513.254 22.8244 513.593 23.0292C513.608 23.0844 513.631 23.1762 513.668 23.3191L514.034 22.9617L513.655 22.9546C513.793 22.8189 513.876 22.6761 513.993 22.6359C514.261 22.5352 514.515 22.403 514.752 22.2421C514.974 22.0965 515.185 21.933 515.381 21.7532C515.56 21.5963 515.782 21.4888 515.963 21.3332C516.154 21.1687 516.298 20.9469 516.499 20.7989C516.677 20.6678 516.905 20.6025 517.108 20.5091Z" fill="#003BC5"/>
<path d="M534.383 29.943L534.856 30.3799C534.882 30.7588 534.775 31.0714 534.433 31.3756C534.352 31.3588 534.203 31.3276 534.027 31.2908C533.913 31.874 533.285 31.5569 533.094 31.9221C532.429 32.0847 531.753 32.0401 531.113 32.2463C531.012 32.2651 530.91 32.2704 530.808 32.262C530.094 32.2953 529.384 32.393 528.687 32.554C528.2 32.6471 527.706 32.7046 527.209 32.726C526.671 32.7495 526.138 32.844 525.625 33.0069C525.525 33.0257 525.422 33.0312 525.321 33.0232C524.915 33.0436 524.499 33.0158 524.107 33.1009C523.792 33.1693 523.478 33.1458 523.167 33.1772C522.63 33.2318 522.082 33.1835 521.538 33.173C520.991 33.1624 520.442 33.1652 519.897 33.1212C519.67 33.1029 519.451 32.9784 519.22 32.8992L519.244 31.956C519.301 31.7136 519.674 31.9096 519.917 31.7853L519.941 31.5208L520.769 30.9274C521.853 30.7748 523.062 30.5503 524.293 30.4333C524.894 30.3767 525.487 30.2592 526.064 30.0825C526.481 29.9538 526.946 29.9823 527.389 29.9261C528.562 29.7769 529.752 29.6381 530.929 29.6829C532.033 29.7248 533.155 29.5635 534.383 29.943Z" fill="#003BC5"/>
<path d="M145.908 149.467C146.006 149.942 146.636 150.328 146.212 150.979L145.893 150.72C145.648 151.28 145.156 151.508 144.668 151.653C144.048 152.315 143.482 152.976 142.855 153.573C142.198 154.199 141.482 154.763 140.774 155.369L140.377 155.018C140.438 156.152 139.781 156.839 139.109 157.434L139.538 158.269C139.643 158.269 139.748 158.269 139.914 158.269C139.967 157.994 140.022 157.706 140.093 157.336C140.851 157.45 141.259 156.956 141.655 156.366L141.293 155.852C142.097 155.694 142.811 155.236 143.291 154.571C144.375 153.125 145.876 152.097 147.368 151.097C147.617 150.93 147.974 150.923 148.57 150.766L147.439 150.112L146.884 150.862C146.664 150.246 146.503 149.794 146.342 149.343L148.014 148.455L148.371 148.736C149.518 147.943 150.939 147.971 152.305 147.644L152.983 147.992V148.702L153.706 148.823C153.554 148.425 153.46 148.18 153.364 147.928C153.45 147.842 153.562 147.73 153.669 147.622C154.451 147.595 154.563 148.357 155.092 148.829C155.148 148.498 155.193 148.236 155.255 147.871C156.168 147.685 156.866 148.398 157.688 148.528C157.721 148.842 157.748 149.091 157.808 149.654C158.049 149.188 158.184 148.927 158.24 148.819H159.627C159.511 149.022 159.431 149.161 159.26 149.461L160.221 149.226C160.081 149.193 160.162 149.195 160.226 149.23C161.301 149.817 162.409 150.352 163.438 151.011C164.838 151.892 166.086 152.995 167.132 154.276C168.006 155.364 168.665 156.622 169.606 157.673C169.795 157.885 169.88 158.191 170.021 158.47C169.987 158.504 169.912 158.578 169.742 158.748C169.986 158.851 170.2 159.014 170.366 159.221C170.531 159.428 170.641 159.674 170.687 159.935C171.097 161.707 171.086 161.709 170.766 162.404L171.425 164.088L170.597 164.502L170.938 165.041C170.702 166.307 170.485 167.477 170.264 168.666L169.453 168.756C169.518 169.818 168.793 170.479 167.983 171.251L168.866 171.743L168.321 172.612L168.096 171.952C167.834 172.061 167.453 172.101 167.281 172.312C166.718 173.013 166.194 173.745 165.712 174.503C165.588 174.694 165.626 174.991 165.617 175.055C165.056 175.553 164.435 175.871 164.185 176.373C163.502 177.744 162.188 178.317 161.057 179.127C160.726 179.342 160.384 179.539 160.032 179.718C159.982 179.579 159.916 179.396 159.845 179.2C159.772 179.233 159.635 179.272 159.637 179.3C159.663 179.739 159.655 180.155 158.993 180.395H158.073L156.955 181.753L155.971 181.467C155.457 182.563 154.279 182.811 153.216 183.276L152.829 182.966L151.851 183.895H150.601C150.327 184.459 150.011 184.928 149.276 184.592L147.724 185.645L150.818 187.4L151.187 187.136L152.356 187.507V187.853C152.435 187.878 152.563 187.939 152.577 187.919C152.849 187.537 153.254 187.669 153.59 187.701C154.027 187.741 154.449 187.918 154.885 187.994C155.285 188.064 155.74 187.978 156.09 188.139C156.57 188.358 156.868 187.927 157.311 187.943C157.804 187.962 158.248 188.306 158.815 188.07C159.264 187.883 159.845 187.996 160.367 188.003C161.993 188.027 163.53 187.587 165.072 187.146C166.018 186.876 167.003 186.73 167.927 186.403C169.403 185.903 170.849 185.318 172.257 184.65C172.911 184.329 173.762 184.383 174.232 183.679C174.376 183.463 174.905 183.688 174.836 183.149C174.824 183.06 175.234 182.943 175.414 182.796C175.657 182.596 175.852 182.339 176.092 182.134C176.544 181.75 177.013 181.385 177.588 180.921V182.162C176.976 182.507 176.976 182.507 176.402 183.83H177.186C177.527 182.914 178.479 182.451 179.052 181.643L179.478 182.096L178.93 183.214C179.108 183.204 179.359 183.264 179.451 183.17C179.711 182.903 179.906 182.572 180.273 182.063C180.402 182.515 180.473 182.767 180.56 183.074L181.62 183.792L180.277 184.323C180.358 184.589 180.452 184.899 180.567 185.277L179.392 186.127L180.194 186.575L179.404 187.328L178.564 186.858C178.686 187.34 178.749 187.59 178.807 187.822L178.322 188.153C178.315 188.119 178.285 187.975 178.231 187.712L176.687 188.749C176.814 188.89 176.914 189 176.876 188.958L176.107 190.024L175.587 189.593C175.415 189.893 175.243 190.193 175.067 190.5H174.205C173.374 191.048 172.66 191.601 171.871 192.015C171.168 192.384 170.229 192.102 169.528 192.79L168.881 192.104L167.929 192.17L168.868 192.609C167.845 193.115 167.041 194.157 165.728 193.442L165.178 193.992L164.778 193.654C164.156 194.101 163.454 194.195 162.729 193.645L161.899 194.38L160.992 194.098C160.919 194.14 160.752 194.314 160.595 194.306C160.423 194.296 160.271 194.062 160.09 194.024C159.829 193.994 159.565 193.989 159.302 194.011C159.093 194.033 158.881 194.029 158.673 194C158.49 193.952 158.331 193.809 158.076 193.657C157.216 194.639 156.41 193.386 155.239 193.74L156.097 192.54C155.813 192.276 155.186 192.63 154.642 193.385L154.534 192.88C154.041 192.409 153.646 193.037 153.171 193.072L152.505 192.442L152.136 192.766C152.087 192.588 152.048 192.447 151.981 192.205C150.937 191.9 149.814 191.58 148.711 191.205C148.516 191.151 148.337 191.048 148.192 190.907C148.048 190.765 147.941 190.589 147.883 190.395C147.447 190.387 146.949 190.532 146.671 190.347C145.134 189.319 143.653 188.206 142.144 187.136C141.908 186.969 141.618 186.879 141.364 186.734C141.06 186.562 140.768 186.369 140.434 186.163C140.397 186.28 140.341 186.452 140.248 186.743C139.442 186.648 138.572 186.981 137.77 186.417L136.701 186.973C135.769 186.318 134.523 187.156 133.603 186.518L132.57 186.815C132.484 186.565 132.421 186.38 132.354 186.184C131.754 186.534 131.226 186.369 130.585 186.157C129.981 185.957 129.29 186.022 128.802 185.487C128.727 185.551 128.652 185.615 128.497 185.749L128.065 185.43L127.599 185.66C126.908 185.494 126.195 185.369 125.515 185.146C124.125 184.691 122.619 184.605 121.344 183.756C120.915 183.47 120.337 183.387 119.815 183.263C116.754 182.535 114.111 180.948 111.509 179.267C110.038 178.329 108.697 177.202 107.52 175.915C107.135 175.491 106.753 175.006 106.264 174.749C105.731 174.468 105.649 173.901 105.212 173.563C104.028 172.648 103.33 171.298 102.423 170.139C101.556 168.992 100.77 167.788 100.068 166.533C99.3078 165.225 98.485 163.912 98.0017 162.495C97.5462 161.158 96.8207 159.896 96.6757 158.452C96.6582 158.276 96.3893 158.118 96.3858 157.949C96.3658 156.985 95.8663 156.135 95.7547 155.206C95.6737 154.53 95.7388 153.837 95.7388 153.035L96.6708 152.229L98.232 152.684C98.2787 152.893 98.3108 153.036 98.3455 153.19H98.9667C99.26 153.57 99.5882 153.89 99.7845 154.277C99.9995 154.665 100.124 155.097 100.148 155.54C100.148 157.091 101.031 158.347 101.512 159.728C101.862 160.731 102.355 161.692 102.718 162.705C102.913 163.25 103.318 163.722 103.647 164.216C104.389 165.328 105.009 166.519 105.829 167.584C106.281 168.172 106.598 168.869 107.078 169.43C108.12 170.649 109.179 171.861 110.318 172.988C112.718 175.365 115.621 177.014 118.64 178.457C119.293 178.769 120.053 178.872 120.773 179.028C121.735 179.237 122.566 179.834 123.563 179.931C125.004 180.071 126.34 180.746 127.818 180.743C128.354 180.743 128.888 180.95 129.427 181.039C129.965 181.128 130.535 180.874 131.061 181.327C131.241 181.481 131.747 181.31 132.083 181.217C133.056 180.946 133.766 180.968 134.724 181.359L135.281 180.976C135.431 181.099 135.588 181.215 135.731 181.346C135.845 181.451 135.943 181.575 136.008 181.646L136.845 180.749C136.571 180.176 136.213 179.488 135.911 178.776C135.608 178.06 135.395 177.303 135.078 176.593C134.74 175.863 134.504 175.09 134.377 174.296L134.008 173.926C134.008 173.336 134.034 172.707 133.999 172.081C133.975 171.639 134.179 171.158 133.729 170.76C133.596 170.642 133.598 170.203 133.709 170.008C134.209 169.132 133.922 168.192 134.012 167.284C134.092 166.48 134.21 165.681 134.963 165.089C134.89 164.401 135.019 163.706 135.335 163.089C135.561 162.666 135.523 162.047 135.827 161.731C136.222 161.323 136.073 160.848 136.252 160.469C136.631 159.666 136.746 158.625 137.945 158.366L137.482 157.757L138.422 157.081C138.491 156.901 138.665 156.452 138.935 155.755C139.481 155.112 140.084 154.076 140.974 153.447C141.85 152.829 142.424 151.971 143.222 151.328C144.068 150.647 145.009 150.082 145.908 149.467ZM159.412 154.155C159.068 153.661 158.803 153.281 158.545 152.913L157.965 153.682C157.793 153.327 157.689 153.113 157.57 152.868C157.458 153.108 157.358 153.322 157.264 153.522H156.864C156.814 153.239 156.764 152.95 156.704 152.607H155.356C154.867 151.676 154.262 151.349 153.955 151.795C154.054 151.917 154.199 152.024 154.233 152.159C154.264 152.283 154.176 152.437 154.103 152.731C153.715 152.427 153.432 152.14 153.092 151.964C152.9 151.864 152.613 151.946 152.267 151.946L152.7 152.534C152.041 153.336 152.04 153.337 151.297 152.93C151.01 153.072 150.638 153.137 150.518 153.346C150.369 153.607 150.413 153.968 149.981 153.825C149.831 153.582 149.694 153.36 149.486 153.022C148.96 153.713 148.54 154.265 148.12 154.817L147.701 154.451L147.135 155.37L146.032 155.884L146.329 156.258L144.437 156.819L144.71 157.119C144.431 157.826 144.162 158.507 143.837 159.33C145.073 158.906 145.235 157.684 146.069 157.093C146.904 156.503 147.648 155.789 148.516 155.06V155.77C147.943 156.285 147.545 156.781 147.031 157.068C146.49 157.37 146.345 158.022 145.817 158.261C145.224 158.529 145.129 159.149 144.757 159.566C144.14 160.257 143.934 161.333 142.885 161.57C142.776 162.458 142.537 163.253 141.883 163.904V165.119L141.3 165.333C141.593 165.733 141.815 166.108 141.392 166.546C141.114 166.839 140.904 167.19 140.778 167.573C140.652 167.956 140.611 168.362 140.661 168.763C140.715 169.398 140.437 169.941 140.341 170.531C140.269 170.973 140.439 171.464 140.022 171.829C139.988 171.857 140.064 172.01 140.088 172.105L140.636 172.299C140.515 172.46 140.416 172.637 140.341 172.824C140.3 173.031 140.298 173.244 140.337 173.452C140.368 173.658 140.494 173.855 140.503 174.059C140.512 174.236 140.325 174.455 140.382 174.592C140.707 175.379 140.837 176.199 140.999 177.03C141.209 178.043 141.679 178.984 142.362 179.76C143.545 179.59 144.394 178.975 145.441 178.768C146.553 178.548 147.546 177.779 148.63 177.346C150.683 176.526 152.331 174.938 154.482 174.306C154.644 174.259 154.748 174.008 154.878 173.851C154.968 173.705 155.08 173.573 155.209 173.46C157.015 172.287 158.669 170.896 160.133 169.317C160.938 168.471 161.558 167.509 162.164 166.523C162.501 165.977 162.645 165.301 163.054 164.847C163.783 164.037 163.842 163.021 164.01 162.082C164.193 161.062 164.132 159.975 164.029 158.932C163.9 157.854 163.485 156.83 162.828 155.967C162.638 155.706 162.211 155.629 161.982 155.383C161.754 155.138 161.637 154.791 161.449 154.445L161.05 154.771L160.398 154.154L159.412 154.155Z" fill="#18DFB4"/>
<defs>
<linearGradient id="paint0_linear_22_377" x1="287.5" y1="115" x2="287.5" y2="530" gradientUnits="userSpaceOnUse">
<stop stop-color="#EBEBFF"/>
<stop offset="1" stop-color="#E6FAFF"/>
</linearGradient>
</defs>
</svg>
