<svg width="30" height="36" viewBox="0 0 30 36" fill="none" xmlns="http://www.w3.org/2000/svg">
<path d="M16.1794 0C16.7174 0.0898192 17.2554 0.175237 17.7926 0.27122C19.9086 0.65075 21.8309 1.49347 23.5921 2.71571C23.9972 2.99662 24.1116 3.42458 23.8774 3.77153C23.6476 4.11231 23.2275 4.18716 22.8225 3.91154C21.7535 3.18506 20.6254 2.57922 19.3988 2.16359C17.7759 1.6141 16.1151 1.37547 14.398 1.44944C12.4387 1.53309 10.5886 2.0086 8.84768 2.89447C6.68322 3.99519 4.93967 5.57936 3.61176 7.60998C2.62815 9.11313 1.98003 10.758 1.65949 12.528C1.39708 13.9757 1.41294 15.4401 1.42703 16.9027C1.42703 16.9344 1.44639 16.967 1.43494 16.93C2.20897 16.93 2.9557 16.923 3.70244 16.9344C3.92522 16.938 4.0494 16.8886 4.1533 16.6632C4.43421 16.053 4.92646 15.6963 5.60979 15.6779C6.32394 15.6585 7.03895 15.6514 7.75222 15.6814C8.66803 15.7192 9.35488 16.4219 9.36016 17.3448C9.37601 20.0394 9.3681 22.7339 9.36986 25.4276C9.36986 25.8028 9.37426 26.1779 9.36898 26.5521C9.35225 27.6441 8.67067 28.3512 7.57787 28.3873C6.96939 28.4075 6.35915 28.4058 5.75067 28.3864C5.01186 28.3626 4.44566 28.0315 4.13658 27.3438C4.05204 27.1562 3.949 27.1183 3.76672 27.1175C3.13534 27.1139 2.49958 27.1342 1.87261 27.0726C0.763959 26.9634 0.0163367 26.103 0.0128144 24.9812C0.00753091 22.837 0.0110515 20.6936 0.0110515 18.5494C0.0110515 17.2488 -0.0180008 15.9482 0.018103 14.6484C0.136981 10.331 1.81359 6.71442 5.00394 3.81291C7.19042 1.82456 9.77316 0.637539 12.6861 0.163787C13.0762 0.100385 13.4698 0.0545968 13.8617 0.00088144C14.6322 8.59961e-07 15.4062 0 16.1794 0ZM7.95388 22.0312C7.95388 20.5439 7.95564 19.0558 7.953 17.5685C7.95212 17.181 7.85967 17.0868 7.48366 17.0841C6.9333 17.0806 6.38294 17.0885 5.83169 17.0815C5.5367 17.0771 5.40813 17.2021 5.40901 17.5015C5.41341 20.5122 5.41341 23.5221 5.40901 26.5328C5.40813 26.8374 5.54373 26.9493 5.83608 26.944C6.37499 26.9343 6.91392 26.9431 7.45283 26.9405C7.89136 26.9387 7.95388 26.8753 7.95388 26.4244C7.95476 24.9592 7.95388 23.4956 7.95388 22.0312ZM3.949 18.3486C3.38015 18.3486 2.85357 18.3478 2.32786 18.3486C1.66919 18.3504 1.42262 18.597 1.42086 19.2645C1.41822 20.108 1.41998 20.9516 1.41998 21.7952C1.41998 22.8026 1.41734 23.8109 1.42086 24.8183C1.42262 25.2823 1.58993 25.6178 1.92191 25.6381C2.59291 25.6795 3.26919 25.6504 3.94812 25.6504C3.949 23.2095 3.949 20.8002 3.949 18.3486Z" fill="#003BC5"/>
<path d="M28.5189 16.9291C28.7179 13.678 28.2565 10.5326 26.4196 7.70064C26.2092 7.37659 25.9723 7.07015 25.7583 6.74962C25.4774 6.3287 25.5294 5.9069 25.8816 5.66474C26.2189 5.43315 26.6248 5.52825 26.918 5.92099C28.5031 8.04231 29.5193 10.3987 29.8213 13.0405C29.9006 13.737 29.9516 14.4397 29.9543 15.1407C29.9684 18.3742 29.9613 21.6076 29.9605 24.8411C29.9605 26.2272 29.1054 27.0963 27.715 27.1192C27.2227 27.1271 26.7305 27.1192 26.2391 27.1218C26.1282 27.1227 26.0172 27.1395 25.9045 27.1483C26.3694 30.3712 23.8237 33.8988 20.1887 34.3805C19.8074 34.4307 19.419 34.4254 19.0369 34.472C18.9418 34.4835 18.8123 34.5786 18.7771 34.6667C18.4196 35.5596 17.7952 35.9963 16.8398 35.9981C16.1838 35.9998 15.5277 36.0016 14.8717 35.9972C13.8062 35.9902 13.0269 35.2795 12.9397 34.2175C12.8842 33.5377 12.8569 32.857 13.3131 32.2697C13.7067 31.7616 14.2324 31.5186 14.862 31.5071C15.5533 31.4939 16.2445 31.4948 16.9358 31.5071C17.7873 31.5221 18.4698 32.0073 18.748 32.813C18.8176 33.0156 18.9118 33.0481 19.0967 33.0508C21.6786 33.0851 23.9734 31.2368 24.4612 28.7219C24.4806 28.6215 24.478 28.5176 24.4876 28.3908C23.799 28.3908 23.1342 28.3969 22.4702 28.389C21.5386 28.3784 20.8808 27.9029 20.6624 27.076C20.6122 26.8876 20.6052 26.6833 20.6052 26.4861C20.6017 23.5106 20.6237 20.5342 20.592 17.5596C20.5805 16.5197 21.3123 15.61 22.4967 15.6584C23.1166 15.684 23.7383 15.6558 24.3591 15.6769C25.0424 15.6998 25.5347 16.0512 25.8191 16.6597C25.9212 16.8789 26.0383 16.9467 26.2664 16.9353C26.6407 16.9177 27.0158 16.93 27.3909 16.93C27.759 16.9291 28.1306 16.9291 28.5189 16.9291ZM24.5563 22.0426C24.5563 20.543 24.551 19.0443 24.5599 17.5446C24.5616 17.218 24.4445 17.0718 24.109 17.0797C23.5586 17.0929 23.0083 17.0894 22.4579 17.0806C22.1444 17.0753 22.0123 17.2162 22.0123 17.5244C22.015 20.5228 22.015 23.522 22.0123 26.5204C22.0123 26.8119 22.1356 26.9484 22.4359 26.9431C22.9748 26.9334 23.5137 26.9422 24.0526 26.9404C24.5123 26.9387 24.5554 26.8964 24.5554 26.4359C24.5572 24.9715 24.5563 23.5071 24.5563 22.0426ZM26.019 25.6733C26.6116 25.6733 27.1717 25.6759 27.7317 25.6724C28.2909 25.6689 28.5357 25.4241 28.5454 24.8543C28.5533 24.4211 28.5471 23.987 28.5471 23.5537C28.5471 22.1122 28.5489 20.6716 28.5462 19.2301C28.5454 18.7017 28.3463 18.3909 27.9201 18.3671C27.2932 18.3319 26.6627 18.3583 26.019 18.3583C26.019 20.8002 26.019 23.2103 26.019 25.6733ZM15.8606 34.5856C16.0711 34.5856 16.2824 34.5856 16.4929 34.5856C17.3497 34.5856 17.4544 34.4782 17.4386 33.6091C17.4298 33.1054 17.2722 32.9469 16.7561 32.9416C16.2877 32.9363 15.8192 32.9407 15.3516 32.9407C14.3698 32.9407 14.3266 32.9847 14.3469 33.9771C14.3557 34.3945 14.523 34.5698 14.9466 34.583C15.2512 34.5936 15.5559 34.5856 15.8606 34.5856Z" fill="#003BC5"/>
<path d="M25.5267 4.6556C25.5285 5.0545 25.2493 5.35037 24.8628 5.3583C24.4568 5.3671 24.1574 5.07123 24.1556 4.66088C24.1539 4.2611 24.4753 3.9344 24.8583 3.94585C25.2352 3.95642 25.525 4.26462 25.5267 4.6556Z" fill="#003BC5"/>
</svg>
