<svg width="36" height="36" viewBox="0 0 36 36" fill="none" xmlns="http://www.w3.org/2000/svg">
<path d="M0.994545 0C1.33404 0.247227 1.4249 0.575453 1.4242 0.994541C1.41363 12.0296 1.41574 23.0646 1.41574 34.0997C1.41574 34.2497 1.41574 34.3997 1.41574 34.5681C2.02571 34.5681 2.60751 34.5681 3.24424 34.5681C3.24424 34.4525 3.24424 34.33 3.24424 34.2074C3.24424 32.1338 3.24354 30.0602 3.24424 27.9873C3.24424 27.3773 3.48302 27.1372 4.09087 27.1372C5.40307 27.1365 6.71456 27.1365 8.02677 27.1372C8.62898 27.1379 8.86635 27.3802 8.86635 27.9951C8.86706 30.1736 8.86635 32.3522 8.86635 34.5596C9.79469 34.5596 10.7125 34.5596 11.6788 34.5596C11.6788 34.4335 11.6788 34.2983 11.6788 34.1631C11.6788 31.1759 11.6788 28.1888 11.6788 25.2016C11.6788 24.5487 11.9063 24.3254 12.5698 24.3247C13.882 24.324 15.1935 24.3233 16.5057 24.3254C17.0417 24.3261 17.3002 24.5853 17.3009 25.122C17.3023 28.1211 17.3016 31.1196 17.3016 34.1187C17.3016 34.2581 17.3016 34.3976 17.3016 34.5624C18.2363 34.5624 19.1534 34.5624 20.1141 34.5624C20.1141 34.4265 20.1141 34.2905 20.1141 34.1546C20.1141 29.7736 20.1141 25.3925 20.1141 21.0107C20.1141 20.3247 20.3311 20.1071 21.0129 20.1071C22.2898 20.1064 23.5668 20.1064 24.8438 20.1071C25.5186 20.1071 25.7369 20.3296 25.7369 21.0178C25.7369 25.3876 25.7369 29.7566 25.7369 34.1264C25.7369 34.2652 25.7369 34.4039 25.7369 34.5659C26.6765 34.5659 27.5943 34.5659 28.5494 34.5659C28.5494 34.4223 28.5494 34.2849 28.5494 34.1483C28.5494 31.1379 28.5515 28.1268 28.5466 25.1164C28.5459 24.7931 28.6339 24.4987 28.9459 24.4106C29.1657 24.3486 29.4538 24.3796 29.6651 24.4733C29.9341 24.5931 29.9574 24.8889 29.9574 25.1742C29.9525 28.1613 29.9546 31.1484 29.9546 34.1356C29.9546 34.2736 29.9546 34.4124 29.9546 34.5688C30.8928 34.5688 31.8014 34.5688 32.7389 34.5688C32.7389 28.3634 32.7389 22.1511 32.7389 15.9134C31.831 15.9134 30.9132 15.9134 29.9546 15.9134C29.9546 16.4381 29.9546 16.9607 29.9546 17.4841C29.9546 18.0933 29.9567 18.7026 29.9539 19.3119C29.9518 19.8021 29.6883 20.1014 29.2615 20.1064C28.829 20.1113 28.5515 19.814 28.5501 19.3316C28.5473 17.9729 28.5473 16.6135 28.5501 15.2548C28.5515 14.7463 28.8178 14.4856 29.3354 14.4842C30.6709 14.4821 32.0063 14.4828 33.3418 14.4835C33.9264 14.4842 34.1715 14.7301 34.1722 15.3161C34.1729 21.5834 34.1729 27.8507 34.1729 34.118C34.1729 34.2574 34.1729 34.3969 34.1729 34.5885C34.4878 34.5885 34.7878 34.6075 35.0851 34.5835C35.5077 34.5497 35.8155 34.6927 36.0007 35.0801C36.0007 35.221 36.0007 35.3612 36.0007 35.502C35.8148 35.888 35.5063 36.0007 35.0851 36C23.7126 35.9915 12.3395 35.9937 0.967074 35.9937C0.210603 35.9937 0.00845593 35.7936 0.00845593 35.0435C0.00845593 23.6943 0.0105693 12.3451 4.08591e-06 0.995951C-0.000700263 0.576863 0.0894547 0.248637 0.429655 0.00211511C0.61983 2.06357e-06 0.807188 0 0.994545 0ZM21.5453 21.527C21.5453 25.8919 21.5453 30.2293 21.5453 34.5589C22.4871 34.5589 23.4048 34.5589 24.3163 34.5589C24.3163 30.2018 24.3163 25.8729 24.3163 21.527C23.3893 21.527 22.48 21.527 21.5453 21.527ZM13.1115 25.7426C13.1115 28.7079 13.1115 31.6394 13.1115 34.5688C14.0468 34.5688 14.9555 34.5688 15.8782 34.5688C15.8782 31.6196 15.8782 28.6881 15.8782 25.7426C14.9491 25.7426 14.0405 25.7426 13.1115 25.7426ZM4.66843 28.5557C4.66843 30.5828 4.66843 32.5684 4.66843 34.5645C5.60451 34.5645 6.52087 34.5645 7.43793 34.5645C7.43793 32.548 7.43793 30.5533 7.43793 28.5557C6.50396 28.5557 5.59536 28.5557 4.66843 28.5557Z" fill="#003BC5"/>
<path d="M27.383 7.93373C27.0118 7.67242 26.666 7.43364 26.3251 7.18853C25.806 6.81452 25.8264 6.21864 26.3828 5.91366C27.726 5.17691 29.072 4.4465 30.4244 3.72736C31.016 3.41251 31.5774 3.77455 31.4992 4.44016C31.3738 5.50725 31.1978 6.5687 31.0435 7.63297C30.9829 8.04924 30.9181 8.46481 30.8639 8.88178C30.7611 9.66713 30.2194 9.91507 29.5728 9.4664C29.246 9.2396 28.922 9.00998 28.567 8.75993C28.4874 8.87051 28.4135 8.96983 28.343 9.07267C23.4309 16.226 16.8016 20.9628 8.41558 23.2223C7.93098 23.3526 7.44006 23.459 6.94983 23.5647C6.53567 23.6541 6.16729 23.4379 6.07221 23.0674C5.97078 22.6729 6.18843 22.3123 6.62513 22.1933C7.5598 21.939 8.50856 21.7305 9.43337 21.4446C15.0921 19.6957 19.9479 16.6458 23.9535 12.2901C25.122 11.0195 26.1173 9.58966 27.1907 8.23167C27.2548 8.15137 27.3041 8.0577 27.383 7.93373ZM28.019 6.64125C28.5614 7.01808 29.0615 7.36602 29.5897 7.73299C29.6954 7.01033 29.7926 6.34965 29.8982 5.62628C29.2481 5.97775 28.6642 6.2933 28.019 6.64125Z" fill="#003BC5"/>
<path d="M29.2263 22.916C28.829 22.9033 28.536 22.5822 28.5522 22.1772C28.5684 21.7806 28.8931 21.4918 29.2988 21.5122C29.6806 21.532 29.9644 21.8426 29.956 22.2328C29.9475 22.6315 29.6306 22.9287 29.2263 22.916Z" fill="#003BC5"/>
</svg>
