<svg width="36" height="36" viewBox="0 0 36 36" fill="none" xmlns="http://www.w3.org/2000/svg">
<path d="M0 28.2525C0 27.6666 0 27.0807 0 26.4957C0.0225344 26.431 0.0572751 26.368 0.0647866 26.3014C0.498573 22.7193 3.19425 19.7458 6.71713 18.974C7.09927 18.8904 7.48705 18.8294 7.8692 18.7589C7.8692 18.2256 7.8692 17.7261 7.8692 17.2191C7.76216 17.1956 7.67202 17.1712 7.58 17.1571C3.98295 16.6107 1.59525 14.6004 0.394353 11.1827C0.202811 10.639 0.128634 10.0541 0 9.48792C0 8.90202 0 8.31612 0 7.73117C0.0234733 7.65417 0.0553952 7.57906 0.0685402 7.50019C0.609365 4.08905 2.50038 1.75581 5.70778 0.509845C6.35094 0.260089 7.05514 0.166191 7.73117 0C8.31706 0 8.90296 0 9.48792 0C9.7142 0.0469466 9.93954 0.10047 10.1677 0.138966C14.6765 0.895746 17.928 5.41295 17.1177 9.92827C16.4614 13.5854 14.2737 15.9346 10.6954 16.9637C10.2616 17.0886 9.80621 17.1393 9.35459 17.2266C9.35459 17.7458 9.35459 18.2538 9.35459 18.7852C11.1752 18.9655 12.777 19.635 14.1178 20.7495C16.3431 18.5261 18.543 16.328 20.7429 14.13C19.0998 12.0653 18.4031 9.70199 18.9129 7.06547C19.5383 3.83178 21.448 1.63375 24.5362 0.491066C25.1643 0.25821 25.8413 0.160558 26.4957 0.000939849C27.0816 0.000939849 27.6675 0.000939849 28.2525 0.000939849C28.3529 0.0253521 28.4543 0.0469503 28.5529 0.0741793C29.3144 0.288256 30.0825 0.484489 30.8345 0.727673C31.1669 0.834711 31.3266 1.18587 31.2589 1.49197C31.1857 1.82341 30.9735 2.04124 30.6364 2.06847C30.4609 2.08256 30.2684 2.01683 30.0984 1.94922C28.8065 1.43657 27.4826 1.28728 26.1089 1.5314C21.0978 2.42057 18.5636 8.1321 21.2781 12.4296C21.3429 12.5329 21.417 12.6296 21.51 12.7629C22.3165 11.3977 23.416 10.425 24.8338 9.80246C22.9607 8.01755 23.2461 5.53876 24.6047 4.14914C25.9915 2.73135 28.2778 2.5877 29.8064 3.84399C30.5594 4.46275 31.0383 5.25239 31.1913 6.2148C31.4157 7.62696 30.9463 8.81283 29.9012 9.80434C31.3566 10.4259 32.4345 11.4268 33.2908 12.8399C33.61 12.1676 33.9311 11.608 34.148 11.0109C34.7236 9.42782 34.7123 7.82882 34.1649 6.23357C34.0128 5.79134 34.0795 5.4937 34.3631 5.28244C34.7818 4.97165 35.2964 5.16507 35.4898 5.71998C36.1968 7.74244 36.1752 9.76397 35.3949 11.7564C33.9255 15.5102 30.0843 17.727 26.0817 17.1336C24.4864 16.897 23.0649 16.2426 21.8715 15.2436C19.6565 17.4585 17.4501 19.6641 15.2379 21.8771C16.375 23.2348 17.0182 24.8489 17.2069 26.6356C17.759 26.6356 18.2585 26.6356 18.7862 26.6356C18.9364 25.0385 19.4697 23.5954 20.4068 22.3109C21.3532 21.0133 22.5701 20.0509 24.0489 19.4256C25.5164 18.8049 27.0478 18.6134 28.6187 18.8463C32.6927 19.45 35.732 22.8029 35.9733 26.8375C36.2475 31.4129 32.9978 35.1987 28.7417 35.8822C26.7455 36.2034 24.8413 35.871 23.0949 34.8447C20.5316 33.3377 19.1261 31.0571 18.7693 28.1126C18.2406 28.1126 17.7402 28.1126 17.2059 28.1126C17.1796 28.3163 17.1599 28.5107 17.128 28.7032C16.3478 33.3443 12.2052 36.5038 7.55559 35.9029C4.10877 35.4578 1.76989 33.503 0.50984 30.2796C0.258206 29.6355 0.166191 28.9295 0 28.2525ZM15.8135 27.3793C15.8173 23.4339 12.5732 20.1814 8.62409 20.1702C4.68058 20.1589 1.42248 23.4001 1.40652 27.3502C1.38962 31.3059 4.65429 34.5799 8.61283 34.5781C12.5573 34.5753 15.8098 31.3247 15.8135 27.3793ZM6.06926 9.80528C4.14821 7.96121 4.5125 5.45145 5.88616 4.10126C7.30958 2.70131 9.59401 2.59991 11.0907 3.88343C11.8991 4.5773 12.3686 5.45145 12.4625 6.51901C12.5761 7.82319 12.0869 8.89075 11.1386 9.80058C12.5855 10.4222 13.668 11.4155 14.4652 12.7404C16.4942 9.98931 16.2849 5.77537 13.3366 3.18768C10.4212 0.629086 6.06456 0.846921 3.36513 3.6947C0.775555 6.42606 0.96522 10.4428 2.76703 12.7225C3.55292 11.4043 4.63833 10.425 6.06926 9.80528ZM24.8329 28.5736C22.8668 26.6732 23.3231 24.1447 24.6723 22.8461C26.1389 21.4349 28.414 21.3898 29.9341 22.709C31.2946 23.8893 32.0242 26.5202 29.9895 28.5126C30.5904 28.9276 31.2477 29.2975 31.7979 29.7858C32.3481 30.2749 32.7913 30.8834 33.2767 31.4336C35.1996 28.8712 35.0982 24.677 32.1847 22.0245C29.3717 19.4622 24.9878 19.5805 22.2762 22.3025C19.5617 25.0282 19.6772 29.1182 21.5278 31.4918C22.3175 30.1735 23.3991 29.1914 24.8329 28.5736ZM27.3868 10.7189C25.2395 10.7996 23.6855 11.8108 22.6424 13.6549C22.54 13.8352 22.5438 13.9497 22.7147 14.099C25.2995 16.3581 29.4196 16.3618 32.027 14.1056C32.1913 13.9629 32.2176 13.853 32.1115 13.6643C31.0702 11.8165 29.5172 10.8043 27.3868 10.7189ZM8.59593 10.7179C6.46174 10.8052 4.90779 11.8193 3.86746 13.669C3.75479 13.869 3.81207 13.9751 3.96793 14.1075C6.6176 16.3628 10.6315 16.359 13.2605 14.1018C13.4267 13.9591 13.4511 13.8493 13.345 13.6605C12.301 11.8118 10.7451 10.8005 8.59593 10.7179ZM27.3774 29.4844C25.2423 29.5632 23.6865 30.5735 22.6414 32.4204C22.5372 32.6044 22.5503 32.7171 22.7203 32.8636C25.3409 35.1273 29.459 35.1236 32.0401 32.8542C32.1951 32.718 32.2138 32.6129 32.1171 32.4401C31.0796 30.5885 29.5266 29.5726 27.3774 29.4844ZM11.0484 6.86359C11.0531 5.489 9.98555 4.41393 8.61377 4.41205C7.25419 4.41017 6.18193 5.4674 6.17066 6.81947C6.1594 8.19594 7.22133 9.28135 8.58747 9.28886C9.96301 9.29731 11.0437 8.23162 11.0484 6.86359ZM29.8139 6.85421C29.8149 5.48149 28.7426 4.41111 27.3689 4.41298C26.0112 4.41486 24.9437 5.47585 24.9362 6.82979C24.9287 8.20533 25.9944 9.28511 27.3633 9.28886C28.737 9.29356 29.813 8.22411 29.8139 6.85421ZM27.3642 28.0553C28.737 28.0591 29.8139 26.9877 29.8139 25.6178C29.8139 24.2601 28.7529 23.1879 27.4018 23.1785C26.0235 23.1691 24.9427 24.2282 24.9352 25.5972C24.9287 26.9718 25.9953 28.0516 27.3642 28.0553Z" fill="#003BC5"/>
<path d="M33.1387 3.88348C32.7424 3.89005 32.4148 3.57645 32.4101 3.18773C32.4063 2.81122 32.7481 2.46757 33.1265 2.46851C33.502 2.46945 33.8138 2.77647 33.826 3.15674C33.8391 3.55767 33.5377 3.87691 33.1387 3.88348Z" fill="#003BC5"/>
<path d="M7.69169 29.3126C8.89447 27.5099 10.0766 25.7409 11.2521 23.9692C11.438 23.6894 11.6549 23.4706 12.0145 23.5063C12.5554 23.5598 12.8258 24.1344 12.5253 24.6142C12.1591 25.1982 11.7657 25.7653 11.3826 26.339C10.4033 27.8075 9.42495 29.277 8.44471 30.7454C8.00247 31.4074 7.51517 31.4224 7.02786 30.7943C6.26827 29.815 5.50116 28.8403 4.75001 27.8535C4.38007 27.3672 4.6073 26.7597 5.17723 26.6733C5.5068 26.6235 5.72932 26.8019 5.91805 27.046C6.43352 27.7127 6.95088 28.3765 7.46823 29.0413C7.53301 29.123 7.60062 29.2018 7.69169 29.3126Z" fill="#003BC5"/>
</svg>
