<svg width="64" height="60" viewBox="0 0 64 60" fill="none" xmlns="http://www.w3.org/2000/svg">
<path d="M0 54.9925C0.229081 54.1586 0.375541 53.2896 0.702264 52.4957C2.42476 48.311 5.55179 45.8655 10.0095 45.1167C10.0909 45.1029 10.1747 45.0917 10.2536 45.0679C10.3112 45.0504 10.3637 45.014 10.5115 44.9377C8.33455 44.5407 6.6396 43.4914 5.4291 41.7334C4.21234 39.9653 3.84682 37.9982 4.2787 35.9045C5.03354 32.242 8.42093 29.7614 12.2803 30.0081C15.7453 30.2297 18.8147 33.2725 19.1014 36.776C19.4194 40.6528 16.902 44.1626 12.776 44.9802C15.54 45.3822 17.9973 46.4377 20.049 48.4062C21.3872 46.7145 22.9382 45.3571 24.7884 44.3366C26.6097 43.3324 28.5688 42.7889 30.6256 42.4759C27.9492 41.9988 25.7473 40.7554 24.0874 38.6192C22.4137 36.4668 21.7365 34.0075 22.0519 31.3053C22.6628 26.0801 27.2995 22.0443 32.8575 22.5264C37.8848 22.9622 41.6127 26.9641 41.9582 31.7423C42.3538 37.208 38.4406 41.6695 33.3345 42.4746C37.6545 43.0131 41.1921 44.9452 43.8084 48.2634C45.0089 47.5246 46.1155 46.6957 47.3435 46.1297C48.549 45.575 49.8772 45.287 51.0539 44.9139C46.9104 44.1212 44.4543 40.4574 44.8887 36.6533C45.3394 32.7028 48.5966 29.9492 52.6236 29.9993C56.2639 30.0457 59.5149 33.0959 59.8316 36.7623C60.1758 40.7429 57.5783 44.1062 53.371 44.9577C54.067 45.1105 54.6253 45.2181 55.1773 45.3571C59.8854 46.5404 63.3066 50.3257 63.9125 55.1441C64.0677 56.3749 63.9751 57.6396 63.9463 58.888C63.9325 59.474 63.4343 59.9148 62.8447 59.9774C62.6594 59.9974 62.4704 59.9874 62.2826 59.9874C42.0884 59.9874 21.8942 59.9849 1.69997 60C0.935113 60 0.363026 59.8034 0.00125303 59.1134C1.2225e-06 57.7423 0 56.3674 0 54.9925ZM19.522 57.4493C27.8641 57.4493 36.1561 57.4493 44.4493 57.4493C44.4731 50.6375 38.8187 45.009 31.9838 44.9978C25.1852 44.9865 19.4669 50.6813 19.522 57.4493ZM39.4771 32.4698C39.4521 28.3803 36.0672 25.0057 31.9875 25.0019C27.8878 24.9982 24.4654 28.4329 24.4904 32.5249C24.5155 36.6145 27.9004 39.9891 31.98 39.9929C36.0797 39.9966 39.5021 36.5619 39.4771 32.4698ZM2.54118 57.4505C7.37442 57.4505 12.1664 57.4505 16.9821 57.4505C17.0221 55.139 17.5241 52.9766 18.488 50.9155C18.5594 50.7627 18.468 50.4397 18.3378 50.3032C17.3514 49.2551 16.1409 48.5502 14.7914 48.0631C8.46475 45.7816 1.91277 50.7765 2.54118 57.4505ZM61.5265 57.4643C61.4501 56.5139 61.4815 55.5873 61.2874 54.7108C60.505 51.1935 58.2981 48.887 54.8869 47.9015C51.3756 46.8873 48.241 47.7951 45.6035 50.3332C45.477 50.4547 45.4345 50.774 45.4933 50.9556C45.6636 51.4865 45.9765 51.9773 46.1055 52.5145C46.496 54.1361 46.8265 55.7726 47.1945 57.4643C51.8162 57.4643 56.5931 57.4643 61.5265 57.4643ZM11.5943 32.5049C8.7126 32.6527 6.69845 34.7087 6.64337 37.5061C6.59079 40.1982 8.92416 42.531 11.6118 42.4734C14.5135 42.4108 16.6128 40.2708 16.5802 37.456C16.5464 34.5309 14.3483 32.6126 11.5943 32.5049ZM52.327 32.5049C49.6205 32.54 47.3485 34.8252 47.3585 37.5023C47.3685 40.192 49.6468 42.5272 52.3382 42.4734C55.2311 42.4158 57.3405 40.2846 57.3092 37.4597C57.2791 34.5422 55.0884 32.6151 52.327 32.5049Z" fill="white"/>
<path d="M31.8886 0C32.5383 0.022539 32.9001 0.350606 33.1467 0.853977C33.8201 2.23511 34.5224 3.60248 35.1633 4.99864C35.3811 5.47321 35.6678 5.68233 36.171 5.74744C37.6532 5.93652 39.1291 6.17568 40.6112 6.37227C41.2196 6.45366 41.674 6.69032 41.878 7.30513C42.0808 7.91494 41.7879 8.35069 41.3848 8.74512C40.2832 9.82198 39.1904 10.9064 38.0663 11.9594C37.7496 12.2562 37.6807 12.5479 37.7546 12.9511C38.0375 14.4813 38.2979 16.0164 38.5695 17.5491C38.6684 18.1051 38.5532 18.5959 38.0901 18.944C37.6244 19.2934 37.1262 19.2583 36.6254 18.9941C35.266 18.2766 33.894 17.5842 32.5495 16.8404C32.1227 16.605 31.7997 16.5787 31.3591 16.8241C30.0722 17.5428 28.749 18.194 27.4497 18.8927C26.9051 19.1857 26.3656 19.3622 25.816 18.9653C25.2778 18.5771 25.2189 18.0399 25.3429 17.4089C25.6208 15.9839 25.8386 14.5464 26.0927 13.1164C26.1803 12.6243 26.1428 12.2462 25.7134 11.8593C24.6306 10.8863 23.6266 9.82699 22.5714 8.82276C22.0982 8.37323 21.7902 7.88238 22.0256 7.22374C22.2409 6.6202 22.7504 6.44364 23.35 6.3635C24.8935 6.15815 26.4332 5.9265 27.9667 5.66354C28.1995 5.62347 28.4812 5.40434 28.5901 5.19148C29.3199 3.76902 30.0134 2.32903 30.7081 0.889037C30.9648 0.359371 31.3353 0.0162781 31.8886 0ZM31.9349 4.14467C31.463 5.11009 30.9898 5.96657 30.618 6.86562C30.2713 7.70708 29.6804 8.05393 28.8079 8.13406C27.8765 8.21921 26.9539 8.39952 26.0814 8.52975C26.8488 9.3399 27.5861 10.1313 28.3397 10.9076C28.729 11.3096 28.8993 11.7416 28.7854 12.3175C28.5751 13.3794 28.4198 14.4525 28.2245 15.6208C29.2122 15.1011 30.1073 14.6591 30.9698 14.1657C31.6345 13.7851 32.2416 13.7863 32.9063 14.167C33.765 14.6591 34.6563 15.0949 35.619 15.5995C35.5914 15.3215 35.5852 15.1587 35.5589 14.9984C35.4112 14.1182 35.2697 13.2366 35.1045 12.3589C34.9856 11.7265 35.1646 11.2269 35.6403 10.7937C36.2399 10.2465 36.8107 9.66797 37.3916 9.10074C37.558 8.93795 37.7183 8.76641 37.9436 8.53476C36.822 8.37824 35.8368 8.22547 34.8466 8.10652C34.1218 8.01887 33.6311 7.68955 33.3282 6.9971C32.9151 6.05547 32.4281 5.14515 31.9349 4.14467Z" fill="white"/>
<path d="M18.2226 17.0821C18.0261 17.4064 17.8796 17.7758 17.6242 18.0437C16.9082 18.7975 16.1346 19.4962 15.4135 20.245C15.2746 20.3903 15.1882 20.6758 15.217 20.8761C15.3547 21.8616 15.545 22.8408 15.7077 23.8237C15.8029 24.401 15.7816 24.9519 15.2533 25.3464C14.7288 25.737 14.2093 25.6343 13.6785 25.3464C12.8573 24.9018 12.0161 24.4899 11.2075 24.0253C10.8269 23.8062 10.524 23.7811 10.1309 24.009C9.30596 24.4886 8.44471 24.9043 7.60475 25.3576C7.09276 25.6331 6.58202 25.7383 6.08505 25.3639C5.60435 25.002 5.48543 24.5137 5.60436 23.9226C5.79088 22.9873 5.9148 22.0394 6.09882 21.1028C6.18394 20.6708 6.09381 20.3652 5.75707 20.0622C5.06107 19.4361 4.40888 18.7637 3.73416 18.1138C3.30354 17.6981 3.03188 17.2323 3.25345 16.6138C3.4625 16.034 3.91692 15.8136 4.50027 15.741C5.44789 15.622 6.38798 15.4555 7.33561 15.334C7.74244 15.2814 7.98781 15.1199 8.16181 14.7217C8.54487 13.849 8.99676 13.0063 9.41737 12.1485C9.67148 11.6326 10.022 11.2557 10.6479 11.252C11.2726 11.2482 11.6318 11.6101 11.886 12.1335C12.3303 13.0476 12.771 13.9654 13.2479 14.8632C13.3443 15.0435 13.5771 15.2301 13.7737 15.2652C14.8139 15.4542 15.8642 15.5945 16.9107 15.7535C17.6718 15.8737 18.115 16.3383 18.2226 17.0821ZM14.1705 17.9986C13.283 17.777 12.433 17.7758 11.8809 17.3701C11.3151 16.9543 11.0385 16.1417 10.6129 15.4668C10.4288 15.8324 10.2098 16.188 10.0658 16.5699C9.77038 17.355 9.18829 17.6793 8.39339 17.742C8.0166 17.772 7.6423 17.8509 7.27552 17.9072C7.78751 18.5396 8.46975 19.063 8.68255 19.7341C8.89161 20.3953 8.62373 21.2067 8.55112 22.1371C9.93938 20.8073 11.3226 20.8786 12.8123 21.9981C12.0975 20.2225 12.6245 18.9378 14.1705 17.9986Z" fill="white"/>
<path d="M60.7003 17.082C60.5037 17.4063 60.3573 17.777 60.1019 18.0449C59.3859 18.7987 58.6122 19.4974 57.8912 20.2462C57.7523 20.3915 57.6659 20.677 57.6934 20.8773C57.8311 21.8628 58.0214 22.842 58.1841 23.8249C58.2793 24.4022 58.258 24.9531 57.731 25.3475C57.2065 25.7407 56.6857 25.6343 56.1562 25.3488C55.3525 24.9155 54.5201 24.5286 53.7414 24.0553C53.2845 23.7786 52.9403 23.8161 52.5009 24.0741C51.7135 24.5361 50.8861 24.9268 50.0812 25.3601C49.5692 25.6355 49.0584 25.742 48.5615 25.3663C48.0808 25.0044 47.9618 24.5174 48.0795 23.9263C48.266 22.991 48.39 22.0431 48.574 21.1065C48.6591 20.6745 48.5702 20.3689 48.2335 20.0659C47.5375 19.4398 46.8853 18.7674 46.2106 18.1175C45.7799 17.7018 45.507 17.236 45.7286 16.6174C45.9364 16.0364 46.3908 15.8173 46.9742 15.7434C47.9218 15.6245 48.8619 15.4579 49.8095 15.3365C50.2151 15.2839 50.4617 15.1249 50.637 14.7254C51.0188 13.8514 51.4719 13.01 51.8925 12.1522C52.1466 11.6363 52.4971 11.2582 53.123 11.2544C53.7477 11.2507 54.107 11.6113 54.3623 12.1347C54.8067 13.0488 55.2474 13.9666 55.7243 14.8644C55.8207 15.0447 56.0535 15.2313 56.2501 15.2676C57.2903 15.4567 58.3406 15.5969 59.3871 15.756C60.1507 15.8737 60.5939 16.3382 60.7003 17.082ZM53.2457 15.3978C53.1919 15.4241 53.1381 15.4517 53.0842 15.478C52.899 15.8461 52.6824 16.2017 52.536 16.5836C52.248 17.3387 51.691 17.6705 50.9186 17.7369C50.5243 17.7707 50.1337 17.8471 49.7407 17.9047C49.7043 17.946 49.668 17.9873 49.6317 18.0299C51.2604 18.9628 51.6109 20.3026 50.9587 22.0406C52.3958 20.8723 53.7928 20.8247 55.2937 21.9967C54.5689 20.2049 55.1284 18.9314 56.6281 17.9084C54.7692 17.9886 53.62 17.226 53.2457 15.3978Z" fill="white"/>
<path d="M41.117 53.6028C41.1144 54.3316 40.8215 54.7285 40.2745 54.9176C39.6899 55.1192 39.2154 54.9263 38.8562 54.4342C38.2941 53.6654 37.7621 52.8715 37.1587 52.1365C36.8608 51.7746 36.4264 51.5267 36.0634 51.2149C35.4387 50.6765 35.3386 49.969 35.7968 49.3955C36.2274 48.8558 36.9497 48.7744 37.5893 49.2165C39.0377 50.2182 40.1656 51.5054 40.9542 53.0806C41.0556 53.2797 41.0894 53.5114 41.117 53.6028Z" fill="white"/>
<path d="M31.9541 49.9889C31.2554 49.9739 30.7069 49.3841 30.7382 48.6829C30.7683 48.0105 31.3355 47.4833 32.0129 47.4984C32.7104 47.5134 33.2601 48.1032 33.2288 48.8044C33.1987 49.4768 32.6315 50.0039 31.9541 49.9889Z" fill="white"/>
</svg>
