<svg width="55" height="60" viewBox="0 0 55 60" fill="none" xmlns="http://www.w3.org/2000/svg">
<path d="M51.0443 0C51.3848 0.137672 51.7394 0.247184 52.0609 0.416144C53.5266 1.18898 54.3083 2.42803 54.3162 4.05818C54.3446 9.77625 54.3304 15.4959 54.3241 21.2139C54.3225 22.0322 53.8024 22.5938 53.1058 22.586C52.4076 22.5766 51.9175 22.029 51.9159 21.1889C51.9064 17.9693 51.9112 14.7481 51.9112 11.5284C51.9112 11.3 51.9112 11.0716 51.9112 10.8135C35.5109 10.8135 19.1799 10.8135 2.78596 10.8135C2.77493 11.0247 2.75445 11.2312 2.75445 11.4361C2.75287 22.3654 2.75287 33.2962 2.75445 44.2254C2.75445 45.5975 3.30133 46.1403 4.68037 46.1403C9.65435 46.1419 14.6299 46.1403 19.6039 46.1403C19.7599 46.1403 19.916 46.1403 19.9002 46.1403C20.4266 45.2689 20.7875 44.3975 21.3911 43.7499C21.9821 43.1162 22.8206 42.7111 23.5503 42.2057C23.5992 42.248 23.648 42.2887 23.6969 42.3309C23.6969 42.1197 23.6969 41.9085 23.6969 41.6973C23.6969 39.0033 23.6874 36.3109 23.7 33.6169C23.7095 31.7943 24.871 30.3222 26.5274 29.9889C28.8411 29.5227 30.9419 31.2217 30.9735 33.6106C30.9955 35.2283 30.9782 36.8459 30.9782 38.3462C31.7961 38.4104 32.5826 38.3822 33.3186 38.5606C33.8229 38.6826 34.3462 39.0111 34.6992 39.3929C35.1169 39.845 35.4273 39.9326 36.0136 39.7057C37.5014 39.1269 39.2682 39.8121 40.1476 41.2139C40.2485 41.375 40.3462 41.5408 40.4565 41.7239C41.8812 41.2139 43.1799 41.3453 44.3304 42.3403C45.4856 43.3384 45.6417 44.676 45.5613 46.1435C46.5337 46.1435 47.4525 46.1435 48.3729 46.1435C49.0223 46.1435 49.6716 46.1638 50.3194 46.1356C51.2997 46.095 51.8796 45.5099 51.908 44.5399C51.9285 43.8375 51.9143 43.135 51.9143 42.4326C51.9143 39.0362 51.9127 35.6413 51.9175 32.2449C51.9175 31.9742 51.9238 31.6942 51.99 31.4329C52.1255 30.9057 52.4911 30.6085 53.0443 30.5725C53.6007 30.5349 53.9978 30.7978 54.2074 31.2921C54.302 31.5174 54.3256 31.7849 54.3256 32.0352C54.332 36.1732 54.3383 40.3112 54.3272 44.4476C54.3225 46.4782 53.0554 48.0302 51.1042 48.4244C50.8 48.4854 50.4785 48.4807 50.1665 48.4823C48.655 48.487 47.1436 48.4854 45.6495 48.4854C45.5235 49.6337 45.5187 50.7617 45.2508 51.8255C44.8678 53.3446 44.3399 54.834 43.7788 56.3014C43.4116 57.262 42.8773 58.1584 42.4124 59.0815C42.0026 59.895 41.3785 60.1703 40.7071 59.8465C40.0357 59.5226 39.8734 58.8562 40.2658 58.0442C40.8946 56.7457 41.5692 55.4676 42.1381 54.1425C42.8205 52.5514 43.1484 50.8712 43.1531 49.1347C43.1562 47.8268 43.1594 46.5189 43.1562 45.211C43.1547 44.396 42.7213 43.8484 42.0562 43.7999C41.3627 43.7483 40.8852 44.166 40.7071 44.9811C40.6866 45.0765 40.6803 45.1751 40.6567 45.2689C40.5117 45.8603 39.9947 46.2326 39.3958 46.181C38.7969 46.1309 38.343 45.6819 38.3162 45.0655C38.291 44.4804 38.3115 43.8953 38.3083 43.3087C38.302 42.5233 37.8891 41.9804 37.254 41.9132C36.5337 41.8381 35.99 42.2918 35.8324 43.0943C35.7993 43.2649 35.7756 43.4432 35.7063 43.5997C35.4762 44.1112 34.9656 44.36 34.395 44.2614C33.8891 44.1738 33.4999 43.7436 33.4683 43.1992C33.4447 42.8096 33.4746 42.4185 33.4494 42.029C33.399 41.242 32.9088 40.7445 32.2075 40.7367C31.4794 40.7289 31.0822 41.1153 30.9766 41.9351C30.8789 42.7017 30.4045 43.1366 29.7 43.1053C29.0255 43.0756 28.5826 42.5937 28.5779 41.7912C28.5637 39.2145 28.5731 36.6379 28.5684 34.0628C28.5684 33.7906 28.5668 33.5121 28.5148 33.2477C28.3966 32.6438 27.856 32.2637 27.2193 32.3012C26.6015 32.3372 26.1776 32.7502 26.1319 33.3869C26.1082 33.717 26.1145 34.0503 26.1145 34.3819C26.1145 38.3243 26.1145 42.2667 26.1145 46.2092C26.1145 46.4047 26.1224 46.6018 26.0972 46.7943C26.0058 47.5202 25.5251 47.9426 24.8379 47.9128C24.2028 47.8863 23.7505 47.4201 23.7016 46.7223C23.6811 46.4313 23.6969 46.1372 23.6953 45.8446C23.6953 45.5724 23.6953 45.3002 23.6953 44.942C22.9183 45.3221 22.5338 45.9432 22.5101 46.6644C22.4471 48.5934 22.4376 50.5286 22.5148 52.456C22.5338 52.9191 22.8899 53.4385 23.2272 53.8077C24.4676 55.1672 25.7851 56.4563 27.0286 57.8127C27.2934 58.1005 27.5345 58.5808 27.4888 58.9313C27.4431 59.2786 27.0728 59.6619 26.7434 59.8715C26.3604 60.114 25.8813 59.9967 25.555 59.6587C24.0184 58.0677 22.466 56.4876 20.9814 54.8481C20.2627 54.0533 20.0483 53.0177 20.0373 51.9585C20.0263 50.829 20.0342 49.6979 20.0342 48.4854C19.7741 48.4854 19.5456 48.4854 19.3186 48.4854C14.3636 48.4854 9.40849 48.487 4.45342 48.4854C2.02789 48.4839 0.338374 46.8224 0.336798 44.4054C0.33207 31.0168 0.33207 17.6282 0.336798 4.23809C0.336798 2.18554 1.46366 0.700874 3.42583 0.117334C3.49518 0.0969959 3.55508 0.0438044 3.61969 0.00469316C19.4274 -1.90868e-07 35.2351 0 51.0443 0ZM2.76705 8.40266C19.1705 8.40266 35.5109 8.40266 51.8796 8.40266C51.8796 6.81631 51.9301 5.25968 51.8434 3.70931C51.8213 3.32446 51.4242 2.86607 51.0727 2.62358C50.7528 2.40143 50.2595 2.3545 49.8418 2.3545C34.8284 2.34198 19.8135 2.34355 4.80015 2.34511C4.58423 2.34511 4.36515 2.34511 4.15554 2.38579C3.3423 2.54223 2.79227 3.107 2.77651 3.90487C2.74499 5.38327 2.76705 6.86481 2.76705 8.40266Z" fill="white"/>
<path d="M21.905 26.9054C21.9696 25.998 22.0264 25.0061 22.1193 24.0159C22.1556 23.6247 22.0925 23.3197 21.8167 23.0083C21.0524 22.1448 20.329 21.2468 19.5945 20.3566C18.8664 19.4774 19.1706 18.5497 20.2722 18.2696C21.4101 17.9802 22.5543 17.7111 23.6812 17.3873C23.9491 17.3106 24.2344 17.1025 24.3904 16.8741C25.0397 15.923 25.6371 14.9389 26.2628 13.9721C26.9263 12.9474 27.8656 12.9552 28.5354 13.9924C29.1595 14.9592 29.76 15.9433 30.4062 16.896C30.5512 17.1088 30.8238 17.2965 31.0744 17.3669C32.2218 17.6923 33.3833 17.9661 34.5354 18.2728C35.6055 18.5559 35.9081 19.4758 35.2099 20.33C34.4676 21.2374 33.6906 22.1197 32.9704 23.0428C32.7891 23.2743 32.6709 23.6279 32.6804 23.922C32.7135 25.0703 32.8254 26.2155 32.879 27.3638C32.9341 28.5434 32.1603 29.0675 31.0397 28.631C29.9649 28.2117 28.8979 27.7705 27.812 27.3779C27.5677 27.2902 27.2383 27.2887 26.994 27.3763C25.9444 27.7502 24.8743 28.0991 23.8829 28.5981C22.8349 29.1253 21.6623 28.5293 21.9034 27.223C21.9176 27.1479 21.905 27.0681 21.905 26.9054ZM30.3983 25.8165C30.3494 24.9342 30.3289 24.1551 30.2533 23.3822C30.1997 22.8363 30.3542 22.4013 30.7166 21.993C31.2304 21.4157 31.7096 20.8087 32.2564 20.1517C31.4464 19.9389 30.7371 19.712 30.0106 19.5728C29.3786 19.4508 28.9546 19.1316 28.6378 18.5888C28.258 17.9364 27.8278 17.3122 27.3928 16.6363C26.9404 17.3419 26.5023 17.988 26.1052 18.6592C25.8167 19.1473 25.4243 19.4336 24.868 19.5556C24.1099 19.723 23.3613 19.9358 22.5275 20.1501C23.0981 20.8338 23.6008 21.4564 24.1256 22.0572C24.4566 22.4358 24.5795 22.8488 24.5354 23.3494C24.4645 24.1426 24.4377 24.9404 24.3873 25.8228C25.1895 25.5115 25.9412 25.2439 26.671 24.9279C27.1532 24.7183 27.5945 24.7011 28.0831 24.9123C28.8128 25.2299 29.5677 25.4958 30.3983 25.8165Z" fill="white"/>
<path d="M7.75682 27.2402C7.76155 27.1229 7.74579 27.0008 7.77573 26.8898C8.22806 25.2408 7.63073 23.9486 6.42033 22.8441C6.20757 22.6501 6.02002 22.4014 5.90024 22.1417C5.58819 21.4611 5.9885 20.7258 6.77022 20.5162C7.54563 20.3081 8.33207 20.1407 9.10118 19.9108C9.33759 19.8403 9.59133 19.6651 9.73317 19.4633C10.1823 18.825 10.5732 18.1461 11.005 17.4952C11.6039 16.5941 12.5606 16.5894 13.1563 17.4874C13.5787 18.121 13.9538 18.7875 14.3998 19.4039C14.5637 19.6307 14.8443 19.8278 15.1138 19.9123C15.8403 20.1439 16.589 20.3003 17.3265 20.5005C18.3919 20.79 18.6851 21.7114 17.9885 22.5672C17.5062 23.1586 16.9877 23.7233 16.5354 24.335C16.3683 24.5603 16.2674 24.8888 16.269 25.1704C16.2769 25.9104 16.3573 26.6488 16.4093 27.3888C16.4834 28.4339 15.6811 29.0456 14.6945 28.6873C14.2895 28.5403 13.8656 28.4198 13.4968 28.2086C12.5275 27.6548 11.5929 27.6689 10.6331 28.2211C10.3478 28.3854 10.0169 28.4699 9.70638 28.5903C8.43137 29.0847 7.71742 28.5903 7.75682 27.2402ZM10.2564 25.8228C11.4857 25.0766 12.6693 25.0641 13.9018 25.8087C13.5866 24.4101 13.9491 23.3056 15.035 22.3701C13.5567 22.2778 12.6331 21.5331 12.1414 20.2487C11.7017 20.8275 11.4101 21.4377 10.9262 21.7865C10.4518 22.1291 9.78518 22.2058 9.09488 22.4358C10.2233 23.3212 10.6142 24.4164 10.2564 25.8228Z" fill="white"/>
<path d="M38.436 26.677C38.436 26.591 38.3919 26.3829 38.4439 26.2014C38.7843 25.0219 38.2926 24.1426 37.4684 23.3557C37.2004 23.1007 36.9782 22.7956 36.7481 22.5046C36.1145 21.7037 36.425 20.7728 37.4211 20.5084C38.1965 20.3019 38.9829 20.1329 39.752 19.9061C39.9711 19.842 40.2028 19.673 40.332 19.4868C40.7891 18.8298 41.1957 18.1383 41.6386 17.4718C42.217 16.6035 43.1642 16.602 43.7583 17.4624C43.9695 17.7675 44.2107 18.0663 44.3494 18.4042C44.8411 19.5963 45.7804 20.1157 47.005 20.2691C47.3328 20.3097 47.6543 20.4161 47.9742 20.5053C48.9766 20.7838 49.2934 21.688 48.6551 22.5C48.1839 23.0991 47.6559 23.6561 47.2004 24.2662C47.0302 24.4931 46.9104 24.8169 46.9104 25.0969C46.9104 25.8948 47.0066 26.6927 47.0239 27.4921C47.0444 28.4824 46.2548 29.0284 45.3233 28.6858C44.5889 28.4151 43.8718 28.0944 43.1279 27.8504C42.8631 27.7643 42.5196 27.769 42.2532 27.8566C41.5472 28.0882 40.8663 28.3932 40.1713 28.6592C39.0759 29.0785 38.2863 28.4777 38.384 27.3091C38.4014 27.1354 38.414 26.9602 38.436 26.677ZM45.6433 22.3795C44.1886 22.2715 43.254 21.555 42.6992 20.061C42.1555 21.5675 41.1973 22.2606 39.7694 22.3122C40.1949 22.9239 40.6819 23.387 40.8616 23.9471C41.0381 24.4946 40.8994 25.1423 40.8994 25.9183C42.1492 25.0265 43.3123 25.1001 44.5322 25.8182C44.1665 24.4211 44.5527 23.3291 45.6433 22.3795Z" fill="white"/>
<path d="M53.0885 25.4114C53.752 25.402 54.3115 25.923 54.3162 26.5581C54.3209 27.1917 53.7599 27.7518 53.1216 27.7487C52.4864 27.7471 51.9553 27.2434 51.9317 26.6191C51.9064 25.9683 52.4313 25.4208 53.0885 25.4114Z" fill="white"/>
<path d="M16.2091 5.3176C16.217 5.93868 15.6354 6.52692 15.0144 6.52535C14.3809 6.52379 13.8088 5.9512 13.8182 5.32542C13.8277 4.70433 14.3572 4.17085 14.9782 4.15364C15.6165 4.138 16.2012 4.69182 16.2091 5.3176Z" fill="white"/>
<path d="M7.51727 5.3317C7.5157 5.98721 6.97039 6.53633 6.33367 6.52225C5.68906 6.50817 5.14375 5.9434 5.15951 5.3098C5.17527 4.68246 5.70167 4.16306 6.32579 4.15524C6.98142 4.14741 7.51727 4.6762 7.51727 5.3317Z" fill="white"/>
<path d="M9.50939 5.2941C9.5283 4.65894 10.0515 4.15049 10.6788 4.15518C11.3313 4.15988 11.8813 4.71056 11.8687 5.34886C11.8561 5.98872 11.2793 6.54723 10.652 6.52376C9.99638 6.50186 9.4889 5.9543 9.50939 5.2941Z" fill="white"/>
</svg>
