<svg width="61" height="60" viewBox="0 0 61 60" fill="none" xmlns="http://www.w3.org/2000/svg">
<path d="M60.6667 8.08114C60.3192 8.4114 59.9718 8.74165 59.6243 9.07191C59.5805 9.03904 59.5382 9.00461 59.4944 8.97174C59.4944 9.20495 59.4944 9.43817 59.4944 9.67138C59.4944 21.5794 59.4662 33.4891 59.5194 45.3971C59.5288 47.5368 57.8713 49.2507 55.669 49.2319C47.9776 49.1646 40.2862 49.2053 32.5948 49.2053C32.3647 49.2053 32.1346 49.2053 31.8451 49.2053C31.8451 50.1475 31.8232 51.0412 31.8654 51.9303C31.8732 52.0805 32.1299 52.2637 32.3115 52.3529C33.6826 53.0259 34.5044 54.1075 34.639 55.6242C34.7845 57.2614 34.1256 58.5605 32.7138 59.4213C30.7526 60.6172 28.2216 59.894 27.1416 57.8561C26.0836 55.8605 26.899 53.3546 28.9651 52.4092C29.3987 52.2105 29.5364 52.0023 29.5145 51.5515C29.4785 50.7955 29.5051 50.0364 29.5051 49.2053C29.2374 49.2053 29.0105 49.2053 28.7851 49.2053C21.0546 49.2053 13.324 49.2053 5.5935 49.2053C3.31926 49.2053 1.8558 47.7512 1.8558 45.4879C1.8558 33.5595 1.8558 21.6327 1.8558 9.70425C1.8558 9.47104 1.8558 9.23626 1.8558 9.01087C0.789895 8.56635 0.683461 8.40357 0.683461 7.21871C0.683461 5.36395 0.7132 3.50918 0.667809 1.65598C0.650592 0.956339 0.818068 0.410083 1.38467 0C21.1454 0 40.9076 0 60.6683 0C60.6667 2.69215 60.6667 5.38743 60.6667 8.08114ZM57.1528 8.94513C39.452 8.94513 21.8372 8.94513 4.19421 8.94513C4.19421 9.18304 4.19421 9.37713 4.19421 9.57121C4.19421 21.4605 4.19421 33.3482 4.19421 45.2375C4.19421 46.4881 4.57768 46.8637 5.85332 46.8637C22.4085 46.8637 38.9621 46.8637 55.5172 46.8637C56.7756 46.8637 57.1528 46.4834 57.1528 45.214C57.1528 33.3451 57.1528 21.4761 57.1528 9.60721C57.1528 9.39435 57.1528 9.18304 57.1528 8.94513ZM3.05005 6.51907C21.4944 6.51907 39.8933 6.51907 58.2766 6.51907C58.2766 5.10569 58.2766 3.73144 58.2766 2.37128C39.8448 2.37128 21.4615 2.37128 3.05005 2.37128C3.05005 3.75961 3.05005 5.11821 3.05005 6.51907ZM30.668 54.3673C29.7915 54.372 29.0246 55.1499 29.0402 56.0202C29.0559 56.8998 29.8401 57.6605 30.7072 57.6339C31.5649 57.6088 32.299 56.8638 32.3068 56.0092C32.3146 55.1389 31.5414 54.3626 30.668 54.3673Z" fill="white"/>
<path d="M39.5537 18.2378C39.6726 16.3987 39.9027 16.1983 41.7387 16.2953C47.184 16.5833 52.2271 21.0645 53.1584 26.4598C53.2805 27.1672 53.3619 27.8872 53.3885 28.6057C53.4307 29.6747 52.9956 30.0879 51.9203 30.1004C51.7669 30.102 51.6135 30.1004 51.4648 30.1004C50.7104 36.3628 44.9927 40.1459 39.7039 39.5621C34.1459 38.9485 30.4567 34.5362 30.0967 29.7514C29.6725 24.0901 33.6278 19.0673 39.5537 18.2378ZM34.1365 23.9492C31.9311 26.5286 31.8779 30.7609 33.9675 33.7082C36.19 36.8433 40.2189 38.047 43.7875 36.668C47.1699 35.3611 48.9511 31.9724 48.8932 30.0989C46.3576 30.0989 43.822 30.0801 41.2863 30.1114C40.5851 30.1208 40.067 29.9079 39.5787 29.4086C37.7897 27.5805 35.9693 25.7836 34.1365 23.9492ZM50.9186 27.6885C50.4803 22.6751 45.9256 18.9515 41.9719 18.7809C41.9719 21.7391 41.9719 24.6958 41.9719 27.6885C44.9646 27.6885 47.9244 27.6885 50.9186 27.6885ZM39.5584 20.6889C38.1372 20.8814 36.921 21.3979 35.9036 22.1633C37.1526 23.4155 38.3657 24.6316 39.5584 25.8259C39.5584 24.184 39.5584 22.4795 39.5584 20.6889Z" fill="white"/>
<path d="M15.9207 27.6211C17.3607 27.6211 18.7052 27.618 20.0497 27.6227C21.1829 27.6258 21.5413 27.9921 21.5444 29.1378C21.546 29.8969 21.5444 30.6545 21.5444 31.4997C21.7949 31.4997 21.9999 31.4997 22.2065 31.4997C23.4556 31.5012 24.7046 31.4903 25.9536 31.5091C26.7237 31.52 27.1557 31.952 27.1604 32.7111C27.1729 34.605 27.1729 36.4974 27.1604 38.3913C27.1557 39.141 26.6987 39.5949 25.9521 39.5949C20.3502 39.6012 14.7483 39.6012 9.14648 39.5949C8.44527 39.5933 7.9538 39.1206 7.95223 38.4257C7.94284 34.1715 7.94284 29.9157 7.9538 25.6615C7.95536 25.0057 8.44214 24.511 9.10735 24.5048C10.9997 24.4844 12.8936 24.4829 14.7875 24.5064C15.4589 24.5142 15.8878 25.0025 15.9144 25.6834C15.9269 25.9949 15.9191 26.3079 15.9207 26.6194C15.9207 26.9246 15.9207 27.2329 15.9207 27.6211ZM13.5384 26.8964C12.4287 26.8964 11.3847 26.8964 10.336 26.8964C10.336 30.3602 10.336 33.7802 10.336 37.2189C11.4192 37.2189 12.4631 37.2189 13.5384 37.2189C13.5384 33.7692 13.5384 30.3477 13.5384 26.8964ZM15.9692 30.0018C15.9692 32.4482 15.9692 34.8351 15.9692 37.208C17.0633 37.208 18.1088 37.208 19.1481 37.208C19.1481 34.7803 19.1481 32.3934 19.1481 30.0018C18.0697 30.0018 17.0382 30.0018 15.9692 30.0018ZM21.5758 37.2064C22.6651 37.2064 23.7232 37.2064 24.7907 37.2064C24.7907 36.081 24.7907 34.9963 24.7907 33.8929C23.7044 33.8929 22.6464 33.8929 21.5758 33.8929C21.5758 35.0183 21.5758 36.1014 21.5758 37.2064Z" fill="white"/>
<path d="M21.7621 18.5148C19.5582 18.5132 17.356 18.5195 15.1522 18.5101C14.4979 18.507 14.0362 18.1235 13.9345 17.5506C13.8374 16.9997 14.1489 16.4362 14.6873 16.2453C14.8642 16.1826 15.0677 16.1701 15.2586 16.1701C19.6459 16.1654 24.0332 16.1654 28.4204 16.1686C29.2249 16.1686 29.7305 16.6272 29.7336 17.3362C29.7368 18.0468 29.239 18.5101 28.4314 18.5132C26.2072 18.5195 23.9846 18.5148 21.7621 18.5148Z" fill="white"/>
<path d="M24.8173 24.1386C23.609 24.1386 22.4006 24.1449 21.1939 24.1355C20.3925 24.1292 19.8916 23.6597 19.8994 22.949C19.9073 22.2478 20.4191 21.7924 21.2236 21.7908C23.6199 21.7877 26.0163 21.7877 28.4126 21.7908C29.2202 21.7924 29.7258 22.2416 29.7336 22.949C29.7414 23.6612 29.2453 24.1292 28.4423 24.1355C27.234 24.1464 26.0256 24.1386 24.8173 24.1386Z" fill="white"/>
<path d="M11.5789 17.3299C11.5835 18.0124 11.0905 18.5085 10.4096 18.507C9.73974 18.5054 9.22792 17.9889 9.23731 17.3221C9.2467 16.6898 9.75539 16.1795 10.3893 16.1686C11.0655 16.156 11.5742 16.6538 11.5789 17.3299Z" fill="white"/>
</svg>
