<svg width="134" height="36" viewBox="0 0 134 36" fill="none" xmlns="http://www.w3.org/2000/svg">
<rect width="45.3333" height="36"/>
<path d="M119.481 24.2978C118.795 24.2978 118.176 24.2978 117.563 24.2978C117.427 24.1153 117.478 23.9234 117.477 23.7441C117.473 21.8889 117.475 20.0347 117.475 18.1795C117.475 17.303 117.475 16.4255 117.475 15.549C117.475 15.414 117.478 15.279 117.466 15.1451C117.431 14.7759 117.225 14.5597 116.866 14.5017C116.296 14.411 115.975 14.623 115.836 15.2031C115.53 16.4814 115.231 17.7607 114.93 19.0401C114.687 20.0737 114.45 21.1084 114.201 22.1399C114.133 22.4173 114.044 22.6915 113.938 22.9562C113.556 23.9107 112.833 24.417 111.816 24.5088C111.411 24.5446 111.007 24.5277 110.607 24.4349C109.908 24.2736 109.383 23.8896 109.029 23.2684C108.835 22.9288 108.711 22.5628 108.623 22.1831C108.154 20.1644 107.682 18.1468 107.211 16.1281C107.143 15.8327 107.076 15.5364 107.004 15.2421C106.977 15.1282 106.945 15.0132 106.9 14.9046C106.657 14.3213 105.702 14.4026 105.488 14.7791C105.431 14.8782 105.385 14.9943 105.373 15.1071C105.351 15.2906 105.355 15.4773 105.355 15.6629C105.354 18.3271 105.355 20.9913 105.354 23.6555C105.354 23.8548 105.377 24.0573 105.318 24.2451C104.937 24.3368 103.909 24.3463 103.367 24.263C103.357 24.1259 103.334 23.9803 103.334 23.8348C103.331 22.8402 103.332 21.8456 103.332 20.85C103.332 19.0116 103.331 17.1743 103.333 15.336C103.333 15.0997 103.329 14.8614 103.361 14.6293C103.493 13.6548 104.008 12.9787 104.96 12.676C105.686 12.445 106.422 12.4419 107.158 12.6423C107.962 12.8616 108.522 13.3668 108.832 14.1326C108.958 14.4426 109.045 14.7717 109.121 15.0997C109.612 17.2176 110.094 19.3365 110.581 21.4543C110.627 21.6505 110.67 21.8509 110.741 22.0386C110.875 22.3899 111.112 22.5312 111.486 22.5227C111.833 22.5143 112.055 22.3371 112.17 22.0207C112.215 21.8941 112.246 21.7623 112.275 21.6305C112.789 19.3976 113.299 17.1638 113.819 14.932C113.895 14.6051 113.992 14.2781 114.13 13.9722C114.489 13.1749 115.124 12.7214 115.985 12.5695C116.595 12.4619 117.197 12.4788 117.79 12.6528C118.781 12.9428 119.385 13.6738 119.481 14.6968C119.498 14.8814 119.498 15.067 119.498 15.2527C119.499 18.0856 119.499 20.9185 119.498 23.7515C119.5 23.916 119.488 24.0816 119.481 24.2978Z" fill="white"/>
<path d="M49.3663 24.2748C48.7883 24.3412 47.759 24.3307 47.3691 24.2579C47.3575 24.1345 47.3353 24.0027 47.3353 23.8719C47.3332 20.9367 47.3311 18.0035 47.3385 15.0693C47.3395 14.7687 47.3755 14.4608 47.4515 14.1707C47.6861 13.2805 48.3043 12.7806 49.1824 12.5908C49.6643 12.4863 50.1504 12.4769 50.6417 12.5581C51.3677 12.6783 51.9341 13.0327 52.3356 13.6434C52.4646 13.8395 52.5745 14.0505 52.6727 14.2646C53.7516 16.625 54.8252 18.9886 55.901 21.3501C56.013 21.5958 56.1155 21.8458 56.2433 22.0831C56.4399 22.4459 56.7358 22.5788 57.131 22.5071C57.4004 22.4586 57.5854 22.274 57.6192 21.9998C57.6371 21.85 57.6308 21.6971 57.6308 21.5452C57.6319 18.7967 57.6308 16.0481 57.6319 13.3006C57.6319 13.1192 57.6065 12.9335 57.6826 12.7342C58.3282 12.6688 58.9623 12.7194 59.6259 12.7015C59.6502 12.8302 59.6798 12.923 59.6829 13.0169C59.6903 13.2531 59.6861 13.4894 59.6861 13.7246C59.6861 16.4225 59.6861 19.1204 59.6861 21.8184C59.6861 22.1896 59.6776 22.5588 59.5625 22.9184C59.3427 23.6072 58.902 24.0881 58.2173 24.3265C57.4607 24.5902 56.6946 24.5996 55.9284 24.3571C55.4276 24.1989 55.0292 23.893 54.7344 23.4637C54.5822 23.2422 54.4491 23.0049 54.337 22.7613C53.2814 20.4483 52.2289 18.1311 51.1743 15.8139C51.0412 15.5228 50.9165 15.2275 50.7707 14.9428C50.572 14.5546 50.3163 14.4323 49.901 14.4998C49.622 14.5451 49.4413 14.7139 49.4054 14.9955C49.3811 15.178 49.3853 15.3657 49.3853 15.5503C49.3843 18.2482 49.3853 20.9461 49.3843 23.6441C49.3821 23.8434 49.3726 24.0428 49.3663 24.2748Z" fill="white"/>
<path d="M71.6184 17.6108C71.6882 18.0992 71.685 18.9609 71.6153 19.3606C71.4525 19.4787 71.2602 19.427 71.0806 19.427C69.4765 19.4313 67.8714 19.4291 66.2673 19.4302C66.132 19.4302 65.9968 19.427 65.8615 19.4323C65.7093 19.4376 65.5572 19.4429 65.4071 19.4608C64.4096 19.5821 63.9129 20.3594 64.2088 21.3202C64.3451 21.7643 64.6526 22.0343 65.0795 22.1598C65.3194 22.2304 65.5762 22.2558 65.8266 22.2768C66.0612 22.2958 66.299 22.2811 66.5357 22.2811C68.0721 22.2811 69.6096 22.28 71.1461 22.2821C71.3289 22.2821 71.5117 22.2927 71.7125 22.3001C71.797 22.53 71.7622 22.7494 71.7674 22.9624C71.7727 23.1818 71.7738 23.4012 71.7674 23.6195C71.7611 23.8336 71.8034 24.054 71.7083 24.2861C71.573 24.2966 71.442 24.3145 71.3109 24.3145C69.4532 24.3166 67.5956 24.3156 65.7379 24.3156C65.2454 24.3156 64.7615 24.2491 64.286 24.1226C62.4188 23.6258 61.8745 22.1756 62.0278 20.7222C62.126 19.792 62.5604 19.0642 63.4036 18.6107C63.448 18.5875 63.4871 18.5537 63.56 18.5042C63.5124 18.4588 63.4776 18.4082 63.43 18.3829C62.5033 17.8893 62.0838 17.0909 62.0552 16.071C62.0457 15.7366 62.0595 15.3928 62.1271 15.0658C62.3226 14.124 62.89 13.4711 63.7734 13.0893C64.4371 12.8024 65.1408 12.7307 65.852 12.7043C66.1891 12.6917 66.5272 12.7012 66.8654 12.7012C68.2845 12.7012 69.7026 12.7001 71.1218 12.7022C71.3046 12.7022 71.4874 12.7138 71.6597 12.7191C71.7696 13.0914 71.7833 14.164 71.6882 14.7104C71.5223 14.7716 71.3363 14.7505 71.1556 14.7515C69.5008 14.7536 67.8449 14.7505 66.1901 14.7547C65.9207 14.7557 65.648 14.7642 65.3828 14.8064C64.4096 14.9625 63.9108 15.8832 64.2955 16.7913C64.398 17.035 64.5586 17.2322 64.7995 17.3334C65.014 17.4241 65.2433 17.4927 65.4737 17.5317C65.6882 17.5676 65.9112 17.5581 66.131 17.5581C67.7689 17.5602 69.4078 17.5581 71.0457 17.5613C71.2285 17.5634 71.4156 17.5328 71.6184 17.6108Z" fill="white"/>
<path d="M78.4881 18.2564C76.9294 16.4202 75.4025 14.623 73.846 12.7899C73.9442 12.7498 73.9971 12.7097 74.051 12.7087C74.7769 12.7045 75.5029 12.7055 76.2658 12.7055C76.8576 13.4006 77.4451 14.1167 78.039 14.8276C78.6212 15.5258 79.2045 16.223 79.8111 16.9507C79.9273 16.84 80.0277 16.7577 80.1122 16.6617C81.1119 15.5195 82.1105 14.3741 83.108 13.2308C83.2073 13.1169 83.3109 13.0051 83.4081 12.888C83.5117 12.7646 83.6311 12.6981 83.8012 12.7002C84.4764 12.7076 85.1527 12.7045 85.828 12.7076C85.8724 12.7076 85.9167 12.734 85.996 12.7604C85.7265 13.1949 85.3704 13.5261 85.0608 13.8942C84.7343 14.2812 84.3972 14.6588 84.0643 15.0396C83.7431 15.4087 83.4208 15.7768 83.0996 16.146C82.7667 16.5278 82.4328 16.9075 82.101 17.2903C81.7818 17.6584 81.4638 18.0276 81.1351 18.4083C81.4458 18.8397 81.7924 19.2078 82.1147 19.5938C82.4391 19.9819 82.7699 20.3658 83.0974 20.7519C83.425 21.1379 83.7526 21.5239 84.0802 21.9089C84.4078 22.2949 84.7364 22.6799 85.064 23.0659C85.3873 23.4466 85.716 23.8232 86.0435 24.2303C85.6557 24.3358 84.449 24.359 83.6078 24.2883C82.3556 22.7948 81.0886 21.2834 79.8047 19.7531C79.4 20.1053 79.1094 20.5177 78.7766 20.8911C78.4405 21.2687 78.1161 21.6579 77.7854 22.0418C77.4662 22.413 77.1461 22.7832 76.8269 23.1534C76.4972 23.5363 76.1676 23.9202 75.841 24.2999C75.0305 24.2999 74.2401 24.2999 73.4508 24.2999C73.3926 24.1174 73.5342 24.0426 73.6146 23.9487C74.5128 22.8961 75.4162 21.8488 76.3176 20.7993C76.9337 20.0832 77.5497 19.367 78.1647 18.6498C78.2651 18.5359 78.3581 18.4168 78.4881 18.2564Z" fill="white"/>
<path d="M123.452 24.3112C122.706 24.3207 122.003 24.3228 121.303 24.3091C121.254 24.0707 121.371 23.9104 121.437 23.7437C122.419 21.2515 123.407 18.7603 124.392 16.2701C124.671 15.5655 124.95 14.86 125.233 14.1565C125.301 13.9845 125.374 13.8126 125.461 13.6502C125.766 13.0807 126.248 12.7347 126.874 12.5955C127.442 12.4689 128.015 12.4668 128.583 12.5934C129.211 12.7337 129.691 13.0796 129.99 13.6534C130.083 13.8327 130.159 14.0204 130.231 14.2092C131.444 17.3891 132.656 20.5691 133.863 23.7511C133.926 23.9188 134.047 24.0802 133.981 24.3112C133.281 24.3238 132.576 24.3154 131.876 24.3154C131.722 24.1635 131.685 23.9779 131.62 23.8081C130.647 21.2399 129.676 18.6717 128.704 16.1024C128.566 15.7396 128.43 15.3768 128.291 15.016C128.215 14.8178 128.09 14.6659 127.869 14.6184C127.575 14.5551 127.332 14.6564 127.186 14.9253C127.106 15.073 127.049 15.2323 126.987 15.3894C125.878 18.1939 124.771 20.9994 123.661 23.8049C123.601 23.9589 123.534 24.1118 123.452 24.3112Z" fill="white"/>
<path d="M87.8304 14.7359C87.7459 14.2645 87.7448 13.2003 87.822 12.7584C87.9847 12.6677 88.1738 12.7056 88.3535 12.7056C89.8223 12.7025 91.2911 12.7035 92.7589 12.7035C93.8558 12.7035 94.9537 12.7025 96.0505 12.7046C96.2154 12.7046 96.3866 12.6772 96.5387 12.751C96.6169 13.1265 96.6286 14.1284 96.563 14.6695C96.4595 14.7876 96.3158 14.7518 96.1868 14.7518C95.3764 14.756 94.5659 14.7518 93.7564 14.756C93.5905 14.757 93.4172 14.7201 93.2302 14.8467C93.2186 15.4447 93.226 16.067 93.2249 16.6882C93.2238 17.3284 93.2249 17.9686 93.2249 18.6088C93.2249 19.2322 93.2249 19.8555 93.2249 20.4788C93.2249 21.119 93.2302 21.7592 93.2238 22.3994C93.2175 23.0186 93.2566 23.6387 93.1932 24.2895C92.5359 24.3422 91.9008 24.3074 91.2415 24.3137C91.2161 24.2009 91.1823 24.1091 91.1759 24.0153C91.1654 23.8644 91.1717 23.7126 91.1717 23.5607C91.1717 20.8311 91.1728 18.1005 91.1696 15.3709C91.1696 15.1895 91.2045 15.0017 91.1305 14.8288C90.9731 14.7159 90.7987 14.756 90.6339 14.7549C89.8741 14.7507 89.1143 14.7539 88.3545 14.7518C88.1876 14.7528 88.0206 14.7423 87.8304 14.7359Z" fill="white"/>
<path d="M100.53 24.2998C99.8346 24.2998 99.2132 24.2998 98.5676 24.2998C98.5454 24.1975 98.5158 24.1046 98.5063 24.0097C98.4957 23.9095 98.5031 23.8083 98.5031 23.707C98.5031 20.236 98.5031 16.7639 98.5031 13.2928C98.5031 13.1251 98.5031 12.9585 98.5031 12.7866C98.854 12.6368 99.1942 12.718 99.5239 12.7075C99.8399 12.698 100.16 12.6801 100.5 12.7307C100.517 12.8478 100.54 12.9427 100.543 13.0387C100.548 13.3087 100.545 13.5776 100.545 13.8476C100.545 17.1172 100.545 20.3857 100.544 23.6553C100.544 23.8536 100.535 24.0519 100.53 24.2998Z" fill="white"/>
<path d="M117.72 33.7024C117.338 33.7024 117.021 33.7024 116.675 33.7024C116.656 33.5938 116.626 33.4999 116.625 33.405C116.621 31.8377 116.623 30.2694 116.625 28.7021C116.625 28.6177 116.629 28.5333 116.638 28.45C116.704 27.8615 117.083 27.4575 117.664 27.3594C117.764 27.3426 117.866 27.3373 117.967 27.3341C118.766 27.3056 119.188 27.5662 119.52 28.2928C120.109 29.5806 120.695 30.8684 121.284 32.1562C121.347 32.2933 121.413 32.4305 121.49 32.5602C121.553 32.6667 121.659 32.7205 121.785 32.731C121.994 32.749 122.153 32.6382 122.183 32.4315C122.202 32.2986 122.198 32.1626 122.198 32.0276C122.199 30.6955 122.199 29.3644 122.199 28.0323C122.199 27.8646 122.199 27.6969 122.199 27.5377C122.514 27.4174 122.717 27.4069 123.278 27.4839C123.291 27.5894 123.319 27.7012 123.32 27.814C123.323 29.3138 123.324 30.8146 123.319 32.3144C123.318 32.498 123.296 32.6846 123.257 32.8639C123.155 33.3364 122.855 33.6244 122.391 33.7573C122.126 33.8332 121.858 33.8469 121.589 33.8121C121.104 33.7499 120.737 33.5031 120.508 33.0696C120.414 32.8914 120.341 32.7015 120.257 32.518C119.702 31.3082 119.146 30.0974 118.591 28.8877C118.549 28.7959 118.513 28.6989 118.457 28.6166C118.412 28.5491 118.349 28.4848 118.279 28.4437C118.053 28.3129 117.78 28.4479 117.75 28.7052C117.735 28.8381 117.739 28.9742 117.739 29.1092C117.738 30.4413 117.739 31.7723 117.738 33.1044C117.738 33.2879 117.728 33.4704 117.72 33.7024Z" fill="white"/>
<path d="M61.1285 27.4028C61.5638 27.4482 62.0055 27.4577 62.4314 27.5463C63.2958 27.7266 63.8558 28.2709 64.1485 29.0977C64.268 29.4342 64.3303 29.7801 64.3504 30.1356C64.3842 30.7104 64.3768 31.282 64.2215 31.8421C63.9372 32.8715 63.2757 33.4938 62.2105 33.653C61.4381 33.769 60.6614 33.7743 59.8911 33.6372C58.9622 33.4716 58.3303 32.9316 58.0408 32.0351C57.7428 31.1133 57.7375 30.1746 58.008 29.2454C58.3208 28.1717 59.0954 27.5494 60.2123 27.4598C60.5145 27.4355 60.8199 27.4556 61.1232 27.4556C61.1253 27.4387 61.1264 27.4208 61.1285 27.4028ZM61.1169 28.563C61.1169 28.5662 61.1169 28.5704 61.1169 28.5736C60.8305 28.5736 60.542 28.5482 60.2588 28.5788C59.6903 28.64 59.2771 28.9406 59.1007 29.4922C58.8692 30.2157 58.8703 30.953 59.0996 31.6776C59.2412 32.1248 59.5572 32.419 60.0242 32.5234C60.2197 32.5677 60.4226 32.5973 60.6223 32.6057C60.9414 32.6194 61.2627 32.6141 61.5829 32.6068C61.734 32.6036 61.8851 32.5825 62.0341 32.5572C62.629 32.4549 62.9978 32.1005 63.1415 31.5215C63.2937 30.9076 63.2979 30.2853 63.1489 29.6726C62.9788 28.9712 62.5445 28.62 61.8248 28.5662C61.5892 28.5493 61.3525 28.563 61.1169 28.563Z" fill="white"/>
<path d="M108.249 27.4585C108.704 27.4479 109.159 27.4226 109.608 27.5408C110.422 27.7538 110.974 28.2464 111.272 29.0279C111.406 29.377 111.475 29.7398 111.497 30.1121C111.533 30.7038 111.527 31.2934 111.363 31.8682C111.078 32.8744 110.426 33.4861 109.383 33.6496C108.612 33.7709 107.834 33.773 107.064 33.6412C106.113 33.4788 105.472 32.9303 105.183 32.0106C104.892 31.0867 104.888 30.149 105.165 29.2209C105.477 28.1725 106.242 27.5587 107.337 27.4627C107.639 27.4363 107.946 27.4585 108.249 27.4585ZM108.243 28.5659V28.567C107.99 28.567 107.736 28.5491 107.485 28.5701C106.794 28.6282 106.375 28.9878 106.197 29.6586C106.052 30.2049 106.05 30.7608 106.152 31.3103C106.309 32.1646 106.77 32.5517 107.643 32.6055C107.693 32.6086 107.744 32.6097 107.794 32.6097C108.097 32.6097 108.4 32.616 108.704 32.6076C108.871 32.6023 109.04 32.5823 109.204 32.5527C109.777 32.4494 110.139 32.1076 110.281 31.5486C110.446 30.9021 110.452 30.2471 110.276 29.6038C110.098 28.9562 109.678 28.625 109 28.5701C108.749 28.5491 108.495 28.5659 108.243 28.5659Z" fill="white"/>
<path d="M133.488 27.488C133.488 27.6641 133.488 27.8128 133.488 27.9616C133.488 28.1282 133.488 28.2959 133.488 28.4235C133.347 28.5796 133.203 28.5448 133.074 28.5459C132.23 28.549 131.387 28.5469 130.542 28.549C130.374 28.549 130.203 28.548 130.037 28.5722C129.689 28.625 129.475 28.876 129.453 29.2314C129.432 29.5805 129.621 29.8664 129.959 29.956C130.104 29.995 130.259 29.9993 130.41 30.0014C130.849 30.0066 131.289 29.9929 131.727 30.0077C132.029 30.0182 132.337 30.0362 132.631 30.1016C133.34 30.2566 133.789 30.6827 133.927 31.4157C134.001 31.807 133.982 32.1888 133.867 32.5643C133.694 33.1275 133.298 33.4713 132.737 33.618C132.511 33.677 132.271 33.715 132.038 33.7171C130.924 33.7266 129.81 33.7213 128.696 33.7192C128.647 33.7192 128.597 33.7055 128.524 33.6949C128.391 33.3606 128.454 33.0178 128.484 32.6423C128.649 32.6307 128.795 32.6128 128.941 32.6118C129.902 32.6086 130.865 32.6139 131.826 32.6075C132.009 32.6065 132.199 32.5896 132.373 32.5358C132.7 32.4346 132.87 32.1477 132.854 31.7912C132.838 31.4632 132.647 31.2016 132.331 31.1257C132.137 31.0793 131.931 31.0698 131.729 31.0656C131.308 31.0571 130.885 31.0803 130.463 31.0561C130.129 31.0371 129.788 31.0044 129.467 30.9158C128.838 30.7407 128.487 30.2988 128.377 29.6554C128.322 29.3337 128.333 29.0173 128.402 28.702C128.524 28.1482 128.852 27.7633 129.389 27.5798C129.608 27.5049 129.848 27.4542 130.081 27.4511C131.144 27.4374 132.207 27.4437 133.27 27.4448C133.321 27.4448 133.368 27.4627 133.488 27.488Z" fill="white"/>
<path d="M47.6048 33.6844C47.5382 33.3321 47.5519 33.0041 47.5942 32.6465C47.7411 32.6339 47.871 32.6128 48.001 32.6128C48.9637 32.6096 49.9253 32.6117 50.8879 32.6096C51.0391 32.6096 51.1944 32.6107 51.3413 32.5811C51.7418 32.4999 51.952 32.232 51.9499 31.8291C51.9489 31.4315 51.7301 31.1699 51.3212 31.1014C51.1394 31.0708 50.9513 31.0666 50.7664 31.0645C50.3617 31.0592 49.9559 31.0676 49.5512 31.0602C49.2131 31.055 48.8781 31.0297 48.5526 30.92C47.9101 30.7038 47.5519 30.2576 47.4748 29.59C47.4515 29.3906 47.4484 29.185 47.4653 28.9856C47.535 28.1503 48.019 27.6251 48.8474 27.4774C48.9795 27.4542 49.1158 27.4447 49.2511 27.4437C50.2645 27.4405 51.2768 27.4405 52.2902 27.4415C52.3705 27.4415 52.4508 27.4584 52.5618 27.4711C52.5882 27.8255 52.6104 28.1535 52.547 28.4752C52.379 28.5859 52.2057 28.5448 52.0408 28.5458C51.2472 28.55 50.4536 28.5469 49.66 28.549C49.491 28.549 49.3208 28.5479 49.1549 28.5711C48.7946 28.6207 48.5885 28.8538 48.5621 29.2166C48.5347 29.5974 48.728 29.8821 49.0947 29.9665C49.2405 30.0003 49.3959 30.0013 49.547 30.0034C49.9855 30.0076 50.4251 29.9929 50.8636 30.0098C51.1659 30.0214 51.4734 30.0425 51.7671 30.111C52.4793 30.2755 52.9147 30.727 53.0352 31.4537C53.0912 31.788 53.0806 32.1223 52.9961 32.4567C52.8407 33.0726 52.4466 33.4523 51.8474 33.6158C51.6054 33.6822 51.3487 33.7149 51.0982 33.7181C50.0352 33.7287 48.9711 33.7234 47.907 33.7213C47.8108 33.7192 47.7136 33.697 47.6048 33.6844Z" fill="white"/>
<path d="M83.183 27.4753C83.574 27.4268 83.9016 27.4152 84.2545 27.4795C84.2651 27.6135 84.282 27.7274 84.282 27.8424C84.2841 29.1228 84.2873 30.4021 84.2788 31.6825C84.2778 31.9167 84.2471 32.154 84.1975 32.3829C84.0559 33.0357 83.6459 33.446 83.0034 33.6232C82.4909 33.7645 80.6448 33.7645 80.1355 33.6221C79.4476 33.4302 79.0513 32.9703 78.9277 32.2753C78.8949 32.0939 78.8833 31.9061 78.8822 31.7216C78.878 30.4074 78.8801 29.0943 78.8812 27.7801C78.8812 27.6841 78.9002 27.5871 78.9129 27.4627C79.27 27.4289 79.6008 27.4236 79.9252 27.4648C80.0531 27.604 80.0108 27.7622 80.0108 27.9088C80.015 29.0542 80.0118 30.1996 80.014 31.345C80.014 31.5127 80.014 31.6825 80.033 31.8492C80.0731 32.2004 80.2623 32.4356 80.6057 32.5432C80.8921 32.6328 82.2732 32.6349 82.5659 32.5495C82.9125 32.4483 83.1027 32.212 83.1619 31.8692C83.1873 31.7216 83.182 31.5676 83.183 31.4157C83.1841 30.2872 83.1841 29.1586 83.1841 28.0301C83.183 27.8624 83.183 27.6957 83.183 27.4753Z" fill="white"/>
<path d="M92.0498 33.6972C91.7127 33.7383 91.3841 33.732 91.0565 33.7024C90.9371 33.5326 90.9804 33.3597 90.9804 33.1972C90.9773 31.8335 90.9794 30.4687 90.9773 29.105C90.9773 28.9404 90.9635 28.7759 90.954 28.584C90.3633 28.5017 89.7916 28.5892 89.2326 28.5281C89.1048 28.3614 89.1576 28.1874 89.1502 28.026C89.1428 27.8594 89.1481 27.6917 89.1481 27.505C89.2464 27.4807 89.3246 27.4449 89.4017 27.4449C90.8357 27.4417 92.2696 27.4428 93.7036 27.4449C93.7522 27.4449 93.8018 27.4617 93.8737 27.4744C93.9804 27.7961 93.9191 28.1273 93.9117 28.4816C93.8114 28.5048 93.7194 28.5428 93.6254 28.5449C93.2883 28.5534 92.9501 28.547 92.613 28.5502C92.4641 28.5523 92.3151 28.5639 92.1777 28.5713C92.0593 28.7464 92.1027 28.9193 92.1027 29.0818C92.0995 30.4286 92.1016 31.7765 92.0995 33.1234C92.0995 33.3038 92.1259 33.4894 92.0498 33.6972Z" fill="white"/>
<path d="M74.2264 32.6403C74.2264 33.02 74.2264 33.3354 74.2264 33.6771C74.1101 33.694 74.015 33.7193 73.9189 33.7204C73.1591 33.7235 72.3993 33.7393 71.6406 33.714C71.3088 33.7024 70.9685 33.6381 70.6505 33.5368C70.0217 33.3364 69.6445 32.8787 69.4955 32.2427C69.4458 32.0307 69.412 31.8103 69.4109 31.593C69.4035 30.3126 69.4067 29.0322 69.4078 27.7528C69.4078 27.6716 69.4205 27.5904 69.4279 27.5155C69.6043 27.4016 69.7766 27.4491 69.9393 27.4417C70.1063 27.4343 70.2743 27.4406 70.4159 27.4406C70.5606 27.5988 70.5163 27.7581 70.5173 27.9026C70.5215 29.0311 70.5194 30.1597 70.5205 31.2882C70.5205 31.4401 70.5163 31.593 70.5385 31.7417C70.5997 32.1446 70.8206 32.4273 71.2264 32.5243C71.4377 32.575 71.6575 32.6034 71.8752 32.6076C72.4997 32.6182 73.1242 32.6098 73.7477 32.6129C73.8956 32.6119 74.0435 32.6287 74.2264 32.6403Z" fill="white"/>
<path d="M99.8504 33.6972C99.4732 33.7309 99.1583 33.7309 98.818 33.7003C98.7324 33.1582 98.7884 32.6403 98.7779 32.1246C98.7673 31.6036 98.7758 31.0815 98.7758 30.5594C98.7758 30.0542 98.7747 29.5501 98.7758 29.0448C98.7768 28.528 98.7694 28.0102 98.7821 27.4628C99.1593 27.4301 99.488 27.4164 99.843 27.4744C99.8578 27.5925 99.8843 27.7064 99.8853 27.8193C99.8885 29.6534 99.8874 31.4875 99.8864 33.3217C99.8853 33.4356 99.8652 33.5495 99.8504 33.6972Z" fill="white"/>
</svg>
