<svg width="32" height="30" viewBox="0 0 32 30" fill="none" xmlns="http://www.w3.org/2000/svg">
<path d="M31.9992 3.46962C31.7949 3.63396 31.6078 3.82932 31.3823 3.95723C30.3639 4.53399 29.3368 5.09368 28.309 5.65416C27.8361 5.91153 27.4166 5.76657 27.2897 5.31462C27.2099 5.03012 27.3351 4.76887 27.6647 4.58282C28.2236 4.26731 28.7888 3.96188 29.3509 3.65179C29.8676 3.36652 30.3835 3.07969 30.9017 2.79673C31.4238 2.51146 31.7119 2.59285 32 3.09907C31.9992 3.22233 31.9992 3.34636 31.9992 3.46962Z" fill="#003BC5"/>
<path d="M12.6533 19.9018C12.8976 20.3212 13.1261 20.7103 13.3524 21.1002C13.6671 21.6444 13.5904 21.9274 13.0447 22.2421C12.5774 22.5111 12.11 22.7786 11.6216 23.0592C11.6717 23.1545 11.7139 23.2445 11.7633 23.3298C12.3144 24.2747 12.8616 25.222 13.4189 26.1639C14.2284 27.5306 13.7 28.9958 12.5625 29.6594C11.3444 30.3702 9.83594 29.9377 9.07661 28.6493C8.10199 26.9957 7.13599 25.336 6.18095 23.6708C6.04082 23.4259 5.92027 23.384 5.64784 23.4701C3.14594 24.2616 0.448339 22.6018 0.0569278 20.0444C-0.231151 18.163 0.583767 16.4939 2.28249 15.5156C3.9092 14.5784 5.54295 13.6543 7.16731 12.7132C7.36693 12.5977 7.55871 12.4388 7.70197 12.259C10.3244 8.96353 12.9398 5.66345 15.5521 2.36027C15.913 1.90367 16.2981 1.50444 16.9189 1.42382C17.7832 1.31141 18.4627 1.6277 18.9073 2.38275C19.6087 3.57425 20.3078 4.76808 20.9904 5.97121C21.1227 6.20455 21.2675 6.27819 21.5305 6.25494C22.1936 6.19757 22.8598 6.17354 23.5244 6.13013C23.8297 6.10997 24.0434 6.24021 24.1921 6.49448C24.582 7.16349 24.9687 7.83404 25.364 8.49918C25.53 8.77903 25.5221 9.03873 25.339 9.30772C24.9554 9.8713 24.5867 10.4457 24.1984 11.0062C24.0896 11.1636 24.0841 11.2744 24.1835 11.4419C24.8419 12.5512 25.5018 13.6605 26.1312 14.7861C26.7778 15.9428 26.1226 17.2986 24.8168 17.5505C24.1037 17.6885 23.3882 17.8126 22.675 17.9506C19.5469 18.556 16.4195 19.1645 13.2921 19.7723C13.1003 19.8103 12.9077 19.8506 12.6533 19.9018ZM15.6547 4.25722C15.6116 4.31458 15.5944 4.34016 15.5748 4.36497C13.3195 7.21155 11.0658 10.0589 8.8034 12.8993C8.67424 13.0613 8.72121 13.1597 8.80419 13.3024C9.79446 14.9947 10.7879 16.6862 11.7593 18.3885C11.9237 18.6769 12.0772 18.7459 12.4099 18.6785C15.0143 18.1552 17.6235 17.6567 20.231 17.1498C21.1008 16.9808 21.9697 16.8102 22.8699 16.6335C20.4596 12.4993 18.0689 8.39918 15.6547 4.25722ZM7.67927 13.8784C7.49374 13.9838 7.34031 14.0706 7.18766 14.1582C5.6682 15.0319 4.12291 15.8652 2.63711 16.7924C1.13488 17.7304 0.817046 19.756 1.86994 21.1669C2.8109 22.4282 4.54406 22.7793 5.97428 21.9762C7.53914 21.0979 9.09227 20.1987 10.6501 19.308C10.6931 19.2831 10.7299 19.2483 10.7863 19.2056C9.7514 17.4327 8.72356 15.6699 7.67927 13.8784ZM16.4993 3.19595C16.6442 3.44557 16.7843 3.68666 16.9244 3.92698C19.2838 7.97591 21.6425 12.0241 24.0035 16.0722C24.0598 16.1683 24.1397 16.3397 24.1937 16.3335C24.4332 16.3079 24.6931 16.2745 24.8967 16.1606C25.1166 16.0366 25.1824 15.7869 25.0892 15.5342C25.047 15.4195 24.9851 15.3102 24.9225 15.204C22.5834 11.1907 20.2444 7.17899 17.9037 3.1665C17.8411 3.05952 17.78 2.95021 17.701 2.85563C17.4779 2.58741 17.0645 2.56338 16.8179 2.80835C16.7013 2.92385 16.6074 3.06262 16.4993 3.19595ZM7.11251 22.7755C7.44364 23.3453 7.75755 23.8879 8.07303 24.429C8.77444 25.6314 9.4735 26.8345 10.1788 28.0337C10.5295 28.6299 11.09 28.8679 11.6717 28.6841C12.4772 28.4299 12.7786 27.5895 12.3285 26.8074C11.6396 25.6097 10.9397 24.4189 10.2438 23.2259C9.92284 22.6755 9.6011 22.1251 9.26449 21.5475C8.54664 21.9576 7.84758 22.3561 7.11251 22.7755ZM23.3522 10.0046C23.5995 9.63719 23.8344 9.30152 24.0504 8.95422C24.0849 8.89918 24.0567 8.77902 24.0191 8.71003C23.8046 8.3232 23.5815 7.94103 23.3537 7.56195C23.3161 7.49915 23.2394 7.41233 23.1823 7.41388C22.7666 7.42396 22.3509 7.45419 21.882 7.48055C22.3909 8.35498 22.8605 9.16121 23.3522 10.0046ZM11.4282 20.3064C11.054 20.5219 10.7088 20.7212 10.3597 20.9227C10.5781 21.2933 10.7745 21.6266 10.9804 21.9755C11.3437 21.7677 11.6803 21.5747 12.0427 21.3669C11.8337 21.0057 11.6396 20.6716 11.4282 20.3064Z" fill="#003BC5"/>
<path d="M23.9823 2.86881C24.124 2.33469 24.2923 1.6998 24.4622 1.06645C24.5178 0.857915 24.5663 0.647056 24.6399 0.444726C24.762 0.109834 25.0963 -0.066134 25.4047 0.0230153C25.7327 0.118366 25.9331 0.452481 25.8431 0.801326C25.6427 1.57654 25.436 2.34942 25.2168 3.11921C25.1111 3.49053 24.8207 3.68201 24.506 3.6293C24.1725 3.57271 23.9573 3.30681 23.9823 2.86881Z" fill="#003BC5"/>
<path d="M28.2675 8.47439C28.4225 8.5147 28.6926 8.58446 28.9619 8.65578C29.5318 8.80617 30.1048 8.94649 30.6708 9.11083C31.0473 9.22014 31.2391 9.54185 31.153 9.85891C31.0559 10.2171 30.7162 10.4093 30.3248 10.3093C29.5631 10.1147 28.803 9.91472 28.0444 9.70774C27.6624 9.60309 27.4549 9.31161 27.5066 8.98602C27.5551 8.67982 27.8205 8.46663 28.2675 8.47439Z" fill="#003BC5"/>
<path d="M4.40548 21.2258C3.71503 21.1824 3.18819 20.9026 2.81087 20.3514C2.59168 20.0312 2.63395 19.6801 2.90481 19.4677C3.18976 19.2436 3.50993 19.2847 3.78783 19.5793C4.20116 20.0173 4.36477 20.0421 4.89083 19.7413C5.1609 19.587 5.42549 19.4243 5.70026 19.2785C6.07132 19.0808 6.44317 19.1692 6.62322 19.4855C6.797 19.7901 6.69132 20.1437 6.33905 20.3553C5.96643 20.5785 5.58989 20.801 5.19769 20.9855C4.95032 21.1018 4.67085 21.1483 4.40548 21.2258Z" fill="#003BC5"/>
<path d="M8.27342 17.9366C8.63039 17.9529 8.8895 18.2374 8.86837 18.5886C8.8488 18.9134 8.5435 19.1839 8.21941 19.1638C7.86949 19.142 7.60489 18.8483 7.62525 18.5033C7.64482 18.1707 7.92977 17.9211 8.27342 17.9366Z" fill="#003BC5"/>
</svg>
