<svg width="30" height="30" viewBox="0 0 30 30" fill="none" xmlns="http://www.w3.org/2000/svg">
<path d="M23.5798 7.5567C24.0342 6.86151 24.4634 6.20423 24.8925 5.54696C25.2543 4.99333 25.6035 4.43127 25.9797 3.88776C26.5056 3.12852 27.2469 2.77882 28.1557 2.93302C29.115 3.09566 29.7301 3.69226 29.9472 4.64868C30.0885 5.27141 29.9387 5.852 29.5879 6.38709C28.4654 8.09853 27.3487 9.81419 26.2313 11.5282C25.75 12.2663 25.2939 13.0239 24.7781 13.7376C24.4962 14.1286 24.4423 14.5044 24.5054 14.9645C24.8555 17.5212 25.1828 20.0812 25.5177 22.6403C25.5598 22.9631 25.6178 23.2841 25.638 23.6085C25.7096 24.7663 25.0625 25.668 23.9072 25.7641C21.806 25.9393 19.8412 26.6236 17.8503 27.221C14.8951 28.1067 11.9441 29.0049 8.98892 29.8923C7.789 30.2529 6.73464 29.6883 6.37702 28.496C4.28599 21.5347 2.19834 14.5727 0.111516 7.61063C-0.252836 6.39383 0.292431 5.37084 1.50161 5.00007C2.68218 4.63857 3.86443 4.28465 5.04752 3.93495C5.20572 3.88776 5.28986 3.84141 5.29743 3.6476C5.33614 2.64905 6.07242 1.8974 7.07965 1.76847C9.12608 1.5064 11.1717 1.22917 13.2173 0.9612C15.3672 0.679751 17.518 0.402516 19.6679 0.124438C20.0003 0.0814624 20.3318 0.0165776 20.665 0.00225237C21.8187 -0.0457793 22.6509 0.678066 22.7956 1.82156C23.027 3.6535 23.2651 5.48376 23.5033 7.31486C23.5134 7.38143 23.5445 7.44547 23.5798 7.5567ZM19.5459 13.7359C19.232 13.7781 18.9838 13.8109 18.7364 13.8438C17.709 13.982 16.6815 14.1269 15.6533 14.2558C15.2216 14.3098 14.9759 14.148 14.9422 13.8311C14.912 13.543 15.1131 13.3382 15.5355 13.28C17.0299 13.0753 18.5269 12.8848 20.0205 12.6767C20.1458 12.659 20.2998 12.5731 20.3688 12.4703C21.1253 11.3352 21.8708 10.1917 22.6088 9.044C22.6744 8.94288 22.6997 8.78951 22.6854 8.66733C22.5642 7.65698 22.4312 6.64831 22.2983 5.63881C22.1317 4.37987 21.9668 3.12178 21.79 1.86453C21.7118 1.30922 21.3054 0.974682 20.7391 0.993221C20.4462 1.00333 20.1542 1.04378 19.8639 1.08254C17.7039 1.3682 15.5447 1.65808 13.3847 1.94374C11.308 2.21845 9.23041 2.4881 7.15369 2.76534C6.55204 2.84539 6.20621 3.28863 6.28278 3.89281C6.46874 5.37084 6.66732 6.84802 6.85918 8.32521C7.09815 10.1673 7.33292 12.0093 7.57442 13.8505C7.81592 15.6917 8.065 17.5321 8.30818 19.3733C8.57913 21.4227 8.84167 23.4729 9.11935 25.5205C9.23547 26.3741 9.59561 26.6564 10.4371 26.557C11.446 26.4382 12.4532 26.2983 13.4604 26.1643C15.1324 25.9427 16.8036 25.716 18.4755 25.4953C20.262 25.2593 22.0492 25.0318 23.8356 24.7925C24.3506 24.7234 24.7124 24.2582 24.6594 23.7358C24.6098 23.2453 24.5357 22.7574 24.4718 22.2687C24.274 20.7603 24.0771 19.252 23.8785 17.7436C23.7877 17.0526 23.6943 16.3625 23.5925 15.5974C23.4898 15.7423 23.4292 15.8224 23.3745 15.9058C22.7889 16.8024 22.2049 17.6998 21.6184 18.5955C21.5494 18.7 21.4838 18.8146 21.3912 18.8947C20.5371 19.6413 19.6914 20.398 18.8155 21.1185C18.1171 21.6932 17.0585 21.3603 16.8103 20.4915C16.7371 20.2354 16.7691 19.9295 16.8221 19.6607C16.897 19.2781 17.035 18.909 17.1578 18.4953C16.1085 18.6326 15.1139 18.7649 14.1185 18.8939C13.017 19.0371 11.9164 19.182 10.814 19.3169C10.4648 19.3598 10.2444 19.2048 10.2015 18.9242C10.1535 18.6141 10.3134 18.4034 10.6744 18.352C11.8667 18.1818 13.0607 18.02 14.2548 17.8582C15.2511 17.7234 16.2482 17.5911 17.2462 17.4647C17.449 17.4386 17.5541 17.3543 17.6004 17.1445C17.725 16.585 17.9909 16.0912 18.3173 15.621C18.728 15.0277 19.1075 14.4117 19.5459 13.7359ZM15.1762 26.991C15.1686 26.975 15.161 26.959 15.1526 26.9421C15.0903 26.9421 15.0272 26.9354 14.9658 26.9429C13.5017 27.1342 12.0291 27.2783 10.5759 27.5345C9.51146 27.7224 8.26274 27.0971 8.11717 25.6048C7.96907 24.0914 7.73346 22.5872 7.53571 21.0789C7.33461 19.5503 7.1335 18.0209 6.93239 16.4923C6.73129 14.9637 6.53017 13.4351 6.32991 11.9057C6.13132 10.3872 5.93441 8.86788 5.73499 7.34941C5.62644 6.52191 5.51621 5.69442 5.4043 4.85008C4.22457 5.20652 3.08103 5.58319 1.91981 5.8916C1.23655 6.07362 0.799828 6.54719 1.07751 7.46485C3.16349 14.362 5.23264 21.2643 7.30684 28.1648C7.52309 28.8853 8.00693 29.149 8.72638 28.9333C9.93893 28.5693 11.1489 28.201 12.3606 27.8353C13.2989 27.5547 14.2379 27.2733 15.1762 26.991ZM20.9545 17.8144C23.0287 14.6334 25.0852 11.4793 27.156 8.30245C26.4761 7.85837 25.8147 7.42525 25.1332 6.98032C23.0606 10.1597 21.0041 13.3138 18.9341 16.4897C19.6073 16.9321 20.2628 17.3611 20.9545 17.8144ZM28.6143 6.0475C29.0064 5.55622 29.1596 5.05737 28.8583 4.50796C28.6076 4.04955 28.2011 3.85068 27.6811 3.89787C27.1552 3.94506 26.8455 4.26359 26.6293 4.73885C27.2957 5.17787 27.9487 5.60847 28.6143 6.0475ZM18.5168 17.4007C18.404 17.7748 18.3056 18.1001 18.2273 18.3596C18.6733 18.6562 19.078 18.9242 19.5114 19.2115C19.7285 19.0203 19.9834 18.7961 20.2662 18.5484C19.6713 18.1574 19.1134 17.7917 18.5168 17.4007ZM28.0816 6.87752C27.4009 6.43259 26.7395 6.00031 26.063 5.55791C25.925 5.76858 25.8055 5.95059 25.6709 6.1562C26.3491 6.59944 27.0113 7.03172 27.6929 7.47749C27.8275 7.26935 27.9453 7.08818 28.0816 6.87752ZM17.9336 19.3405C17.8487 19.5975 17.7569 19.7896 17.7283 19.991C17.7123 20.1039 17.7653 20.2817 17.8487 20.3373C17.9336 20.3938 18.1196 20.3786 18.2172 20.3205C18.3973 20.2118 18.5445 20.0491 18.7524 19.868C18.4604 19.6801 18.2122 19.5199 17.9336 19.3405Z" fill="#003BC5"/>
<path d="M9.75125 10.5987C9.32547 10.6114 9.10417 10.4496 9.0764 10.1715C9.04863 9.89679 9.22449 9.68613 9.57033 9.63641C10.607 9.4881 11.6454 9.35243 12.6829 9.2134C14.3641 8.98841 16.0454 8.7651 17.7266 8.54011C18.526 8.43309 19.3245 8.32439 20.1239 8.22158C20.4176 8.18367 20.6784 8.38759 20.7121 8.66482C20.7424 8.92099 20.5489 9.16368 20.2527 9.20497C19.1537 9.35749 18.0531 9.50159 16.9533 9.64737C15.4378 9.84876 13.9224 10.0485 12.4069 10.249C11.4931 10.3695 10.5792 10.49 9.75125 10.5987Z" fill="#003BC5"/>
<path d="M12.1065 5.86378C11.6715 5.88148 11.4477 5.72727 11.4123 5.43824C11.3795 5.16353 11.5731 4.94191 11.9357 4.88967C12.9101 4.75063 13.8862 4.62339 14.8623 4.49615C16.3988 4.29559 17.9362 4.09757 19.4735 3.90207C19.853 3.85404 20.0895 4.00403 20.1374 4.30655C20.1829 4.59052 19.986 4.81804 19.604 4.87113C18.3906 5.03966 17.1755 5.19555 15.9613 5.3565C14.7571 5.51576 13.553 5.67503 12.3489 5.83345C12.2454 5.84862 12.141 5.86041 12.1065 5.86378Z" fill="#003BC5"/>
<path d="M11.4763 23.6582C11.0421 23.6751 10.8166 23.5192 10.7863 23.231C10.7585 22.9673 10.947 22.7482 11.2869 22.701C12.4869 22.5324 13.6885 22.3715 14.8909 22.2173C15.2056 22.1768 15.4479 22.3664 15.4867 22.6445C15.5228 22.8998 15.331 23.1636 15.044 23.2015C13.8323 23.3633 12.619 23.5125 11.4763 23.6582Z" fill="#003BC5"/>
<path d="M10.379 14.951C9.87162 14.9797 9.66294 14.844 9.62508 14.5482C9.58553 14.2381 9.75129 14.0427 10.1485 13.9828C10.8098 13.8834 11.4738 13.7983 12.1377 13.714C12.4154 13.6786 12.6644 13.8724 12.709 14.1387C12.7519 14.3957 12.5685 14.6502 12.2748 14.694C11.6025 14.7943 10.9285 14.8777 10.379 14.951Z" fill="#003BC5"/>
</svg>
