<svg width="30" height="30" viewBox="0 0 30 30" fill="none" xmlns="http://www.w3.org/2000/svg">
<path d="M15.001 0.000922267C18.8432 0.000922267 22.6846 -0.00163817 26.5268 0.00177339C28.1981 0.00347916 29.5155 1.02268 29.8984 2.61502C29.9674 2.90074 29.9956 3.20352 29.9956 3.49862C30.0007 11.161 30.0007 18.8242 29.999 26.4865C29.9981 28.5386 28.5341 29.9987 26.4774 29.9987C18.8253 30.0004 11.1732 30.0004 3.52119 29.9987C1.46535 29.9979 0.00213173 28.5377 0.00127904 26.4848C-0.000426346 18.8327 -0.000426346 11.1806 0.00127904 3.52932C0.00213173 1.4551 1.45938 0.00262627 3.5391 0.00177339C7.35916 -0.00078528 11.1801 0.000922267 15.001 0.000922267ZM13.82 1.39113C13.716 1.39113 13.6418 1.39113 13.5676 1.39113C10.1841 1.39113 6.79979 1.38857 3.41631 1.39284C2.23107 1.39369 1.39287 2.23549 1.39287 3.42527C1.39116 11.1396 1.39116 18.854 1.39287 26.5693C1.39287 27.7735 2.23277 28.6068 3.44445 28.6077C11.1485 28.6094 18.8526 28.6085 26.5567 28.6068C26.7153 28.6068 26.8781 28.6025 27.0316 28.5684C28.0165 28.3484 28.6091 27.5859 28.6091 26.5368C28.6108 19.631 28.6099 12.7252 28.6099 5.81933C28.6099 5.71613 28.6099 5.61293 28.6099 5.47817C28.4513 5.47817 28.3269 5.47817 28.2024 5.47817C24.8931 5.47817 21.5838 5.48159 18.2745 5.47647C16.3849 5.47306 14.8526 4.37198 14.2293 2.58688C14.0912 2.19796 13.9607 1.80649 13.82 1.39113ZM15.2866 1.39113C15.3574 1.61715 15.4128 1.78687 15.4623 1.95745C15.8801 3.40395 17.0978 4.1127 18.4169 4.0982C21.6827 4.06323 24.9493 4.08711 28.2151 4.08711C28.3388 4.08711 28.4616 4.08711 28.5818 4.08711C28.5818 3.69563 28.633 3.33742 28.5724 3.00053C28.3959 2.02824 27.6012 1.39369 26.6027 1.39284C22.943 1.38943 19.2832 1.39113 15.6234 1.39113C15.5279 1.39113 15.4333 1.39113 15.2866 1.39113Z" fill="#003BC5"/>
<path d="M15.7206 23.1739C16.3704 23.1739 16.9971 23.1722 17.6238 23.1739C18.138 23.1756 18.4023 23.4118 18.41 23.9219C18.4237 24.7841 18.4237 25.6464 18.41 26.5078C18.4023 27.0187 18.1372 27.2584 17.6264 27.2592C15.8707 27.2609 14.1142 27.2609 12.3585 27.2592C11.8665 27.2584 11.5987 27.0187 11.5902 26.5257C11.5757 25.6532 11.5757 24.7799 11.5902 23.9082C11.5987 23.4144 11.8648 23.1764 12.3576 23.1747C12.9937 23.1722 13.6298 23.1739 14.2847 23.1739C14.2847 19.7717 14.2847 16.3968 14.2847 12.9674C12.7405 14.0898 11.2338 15.1857 9.72621 16.2808C9.73047 16.303 9.73388 16.326 9.73814 16.3482C9.89077 16.3482 10.0434 16.3422 10.196 16.3491C10.6386 16.3695 10.9089 16.6399 10.9106 17.0783C10.914 18.419 10.914 19.7606 10.9106 21.1014C10.9097 21.5227 10.6428 21.8169 10.2199 21.8195C8.4105 21.8297 6.60109 21.8289 4.79253 21.8195C4.37641 21.8169 4.09417 21.5227 4.09076 21.1022C4.08138 19.7615 4.08138 18.4199 4.08991 17.0791C4.09247 16.6305 4.38665 16.3542 4.8454 16.3491C5.57957 16.3414 6.31373 16.3516 7.04875 16.3422C7.17751 16.3405 7.33014 16.3115 7.43161 16.2382C9.19924 14.9623 10.96 13.677 12.7226 12.3934C12.7388 12.3814 12.7498 12.3627 12.7925 12.3149C12.6953 12.303 12.6219 12.2859 12.5486 12.2859C12.0379 12.2833 11.5271 12.2919 11.0163 12.2816C10.4757 12.2706 10.2199 12.0062 10.2191 11.4646C10.2165 10.1878 10.2165 8.91018 10.2191 7.6334C10.2199 7.09096 10.4834 6.82742 11.0172 6.82657C13.6776 6.82571 16.3388 6.82571 18.9992 6.82657C19.4998 6.82657 19.7786 7.09011 19.7803 7.58479C19.7863 8.89397 19.7863 10.2032 19.7803 11.5123C19.7777 12.0036 19.5066 12.2706 19.0001 12.2808C18.4177 12.2919 17.8345 12.2834 17.2512 12.2834C17.2325 12.3106 17.2145 12.3379 17.1958 12.3652C17.2546 12.3985 17.3169 12.4266 17.3714 12.4667C19.0828 13.7111 20.7924 14.958 22.5089 16.1956C22.6351 16.286 22.8159 16.338 22.9728 16.3414C23.6745 16.3567 24.3772 16.3457 25.0798 16.3491C25.6315 16.3516 25.9103 16.6229 25.912 17.1661C25.9154 18.4429 25.9154 19.7205 25.912 20.9973C25.9103 21.5457 25.6349 21.8238 25.0892 21.8246C23.3548 21.8272 21.6195 21.8272 19.8852 21.8246C19.3497 21.8238 19.0888 21.5542 19.0879 21.0169C19.0871 19.7615 19.0871 18.5052 19.0879 17.2497C19.0879 16.5776 19.3122 16.3533 19.9841 16.3491C20.0753 16.3482 20.1666 16.3491 20.2791 16.2851C18.7724 15.1891 17.2666 14.094 15.7215 12.9708C15.7206 16.3883 15.7206 19.7615 15.7206 23.1739ZM11.6226 10.8914C13.895 10.8914 16.1342 10.8914 18.3742 10.8914C18.3742 9.98993 18.3742 9.11146 18.3742 8.21763C16.1171 8.21763 13.8763 8.21763 11.6226 8.21763C11.6226 9.11487 11.6226 9.9942 11.6226 10.8914ZM5.49003 20.4097C6.85519 20.4097 8.18624 20.4097 9.51644 20.4097C9.51644 19.509 9.51644 18.6348 9.51644 17.7632C8.15981 17.7632 6.82791 17.7632 5.49003 17.7632C5.49003 18.6561 5.49003 19.5235 5.49003 20.4097ZM24.5093 17.7512C23.1493 17.7512 21.8242 17.7512 20.4846 17.7512C20.4846 18.6476 20.4846 19.5312 20.4846 20.4097C21.8421 20.4097 23.174 20.4097 24.5093 20.4097C24.5093 19.5167 24.5093 18.6485 24.5093 17.7512ZM17.0304 25.869C17.0304 25.4298 17.0304 25.0076 17.0304 24.5658C15.6763 24.5658 14.3299 24.5658 12.9698 24.5658C12.9698 25.005 12.9698 25.4272 12.9698 25.869C14.3239 25.869 15.6703 25.869 17.0304 25.869Z" fill="#003BC5"/>
<path d="M4.79783 4.10077C4.42427 4.10844 4.10016 3.80311 4.08993 3.43466C4.08055 3.06536 4.391 2.74638 4.76627 2.74041C5.1458 2.73359 5.46308 3.03124 5.47417 3.40396C5.48696 3.76814 5.17054 4.09309 4.79783 4.10077Z" fill="#003BC5"/>
<path d="M8.18919 3.41334C8.1926 3.80055 7.89238 4.10248 7.50517 4.10162C7.13075 4.10077 6.83651 3.81505 6.82712 3.44234C6.81774 3.05342 7.10858 2.74638 7.49238 2.74041C7.88385 2.73359 8.18577 3.02613 8.18919 3.41334Z" fill="#003BC5"/>
<path d="M10.9126 3.42359C10.9109 3.8108 10.6081 4.10675 10.2209 4.10078C9.84648 4.09481 9.55821 3.80568 9.55139 3.43212C9.54456 3.0432 9.83966 2.74213 10.2277 2.74042C10.6149 2.73872 10.9143 3.03723 10.9126 3.42359Z" fill="#003BC5"/>
</svg>
