<svg width="30" height="30" viewBox="0 0 30 30" fill="none" xmlns="http://www.w3.org/2000/svg">
<path d="M30 22.991C29.7941 23.4723 29.5116 23.8689 28.9871 23.9979C28.9778 24.0003 28.9684 24.0086 28.9597 24.0069C28.4729 23.9223 28.3422 24.2689 28.2381 24.6557C28.2091 24.7625 28.1301 24.8577 28.1144 24.9645C28.0987 25.0655 28.0995 25.2068 28.1551 25.2774C28.7249 26.0018 28.7046 26.7179 28.0792 27.379C27.8592 27.6114 27.6424 27.848 27.4154 28.0738C26.8746 28.6134 26.1169 28.6306 25.5713 28.0968C25.4226 27.9514 25.3052 27.9219 25.1432 28.0352C25.1032 28.0631 25.0571 28.0853 25.0101 28.0984C24.5679 28.2192 24.2939 28.4237 24.236 28.9903C24.1734 29.6038 23.5988 29.9923 23.0055 29.998C22.6635 30.0013 22.3222 29.9997 21.9801 29.9989C21.1841 29.9972 20.6268 29.4609 20.5845 28.629C20.5744 28.4335 20.5204 28.344 20.3458 28.2824C20.0703 28.1847 19.8057 28.0541 19.5177 27.9293C19.203 28.289 18.8148 28.5452 18.3185 28.4623C18.0775 28.422 17.8105 28.3383 17.6266 28.1822C17.272 27.8816 16.9448 27.5351 16.6482 27.1704C16.1989 26.6177 16.2388 25.8671 16.7241 25.3308C16.854 25.1871 16.8681 25.0877 16.7812 24.9128C16.6466 24.6426 16.5519 24.3502 16.4275 24.0357C16.3414 24.0357 16.2365 24.0357 16.1316 24.0357C14.5888 24.0357 13.0461 24.0373 11.5033 24.034C11.1871 24.0332 10.957 23.8459 10.8998 23.5634C10.838 23.2596 10.9648 22.959 11.227 22.8539C11.3499 22.8046 11.4931 22.7964 11.627 22.7964C12.5936 22.7914 13.5603 22.7939 14.527 22.7939C14.6327 22.7939 14.7383 22.7939 14.8894 22.7939C14.8894 22.4178 14.8886 22.0638 14.8894 21.7107C14.891 20.7424 15.3582 20.2086 16.2709 20.1141C16.3523 20.1059 16.4627 20.0271 16.4963 19.9499C16.6278 19.655 16.7343 19.3471 16.8587 19.0218C16.5863 18.7352 16.35 18.41 16.3367 17.9542C16.3249 17.5411 16.4415 17.1888 16.7155 16.8956C16.9613 16.632 17.2078 16.3683 17.4614 16.1137C18.0281 15.5446 18.7694 15.5347 19.3486 16.099C19.4691 16.2172 19.5537 16.2353 19.7016 16.1589C19.9787 16.0144 20.2683 15.8986 20.5149 15.7877C20.5783 15.4929 20.5994 15.2103 20.7012 14.964C20.8984 14.4852 21.2796 14.2125 21.7704 14.1731C22.2064 14.1378 22.6517 14.1279 23.0861 14.1739C23.7898 14.2486 24.254 14.7743 24.2923 15.5216C24.3041 15.7458 24.3839 15.8271 24.5639 15.8682C24.6109 15.8789 24.6563 15.901 24.6993 15.9248C25.0907 16.1376 25.4469 16.2878 25.8453 15.8665C26.0096 15.6924 26.347 15.6982 26.6429 15.6111C26.6429 13.6089 26.6429 11.5475 26.6429 9.46888C18.1659 9.46888 9.69519 9.46888 1.183 9.46888C1.183 9.5855 1.183 9.69473 1.183 9.80314C1.183 13.3682 1.183 16.9334 1.183 20.4985C1.183 21.0077 1.25971 21.4955 1.51644 21.9398C1.84128 22.5007 2.30152 22.7997 2.93866 22.7955C4.02275 22.789 5.10604 22.789 6.19013 22.7964C6.66916 22.7997 6.95564 23.2078 6.79205 23.6341C6.69655 23.8837 6.51652 24.0332 6.25431 24.0332C5.02386 24.0357 3.79341 24.0586 2.56374 24.0233C1.54227 23.9938 0.54664 23.0871 0.191281 21.902C0.0816984 21.5365 0.00968718 21.1415 0.00890445 20.7605C-0.00205377 14.9311 -0.00127104 9.10178 0.00264261 3.27244C0.00342534 1.79417 0.866777 0.482606 2.07923 0.109752C2.29135 0.0448724 2.51912 0.00463042 2.73907 0.00463042C10.1985 -0.000297169 17.6587 -0.00111843 25.1181 0.00134536C26.228 0.00134536 27.2534 0.816861 27.6416 2.07093C27.7896 2.54809 27.8647 3.07123 27.8663 3.57467C27.8835 7.78529 27.878 11.9959 27.8718 16.2065C27.8718 16.448 27.9242 16.6246 28.094 16.7987C28.7069 17.4302 28.7155 18.1899 28.1551 18.8756C28.0995 18.9438 28.1042 19.0793 28.1074 19.1828C28.1089 19.2485 28.1668 19.3109 28.1848 19.3791C28.3101 19.8521 28.5073 20.1618 29.0639 20.2127C29.5617 20.2578 29.8254 20.7301 29.9984 21.2089C30 21.8026 30 22.3964 30 22.991ZM1.19865 8.15897C9.69206 8.15897 18.1698 8.15897 26.6585 8.15897C26.6585 6.43924 26.7 4.73922 26.6437 3.04249C26.6061 1.90668 25.8327 1.23653 24.7494 1.23653C19.077 1.23653 13.4046 1.23653 7.7321 1.23653C6.14081 1.23653 4.54952 1.24145 2.95823 1.23406C2.3477 1.23078 1.88824 1.4944 1.55793 2.02248C1.28084 2.46596 1.18535 2.962 1.18457 3.48269C1.183 4.94782 1.18378 6.41214 1.18457 7.87727C1.18457 7.96679 1.19318 8.05631 1.19865 8.15897ZM18.4406 27.2452C18.4962 27.2 18.5455 27.1663 18.587 27.1253C18.706 27.0045 18.821 26.8789 18.94 26.7573C19.2367 26.4551 19.4386 26.4469 19.8073 26.6317C20.2527 26.8551 20.7066 27.0661 21.1739 27.2328C21.6451 27.4004 21.7837 27.5572 21.7899 28.0902C21.7985 28.8294 21.6717 28.762 22.4255 28.7604C23.2051 28.7587 23.1175 28.8606 23.1237 28.0516C23.1276 27.5498 23.2654 27.3971 23.7123 27.2386C24.1616 27.0793 24.6062 26.8945 25.0304 26.6736C25.4868 26.4362 25.6543 26.4346 26.0143 26.8058C26.4793 27.2846 26.4793 27.2846 26.9286 26.8123C27.4178 26.2982 27.4178 26.2982 26.9387 25.7849C26.6108 25.4343 26.6092 25.2561 26.826 24.8027C27.0295 24.3757 27.2158 23.9338 27.3575 23.4805C27.5399 22.8974 27.6369 22.7914 28.2201 22.7923C28.8807 22.7931 28.8173 22.8317 28.8173 22.1599C28.8181 21.401 28.8173 21.401 28.1034 21.3871C27.7043 21.3797 27.5375 21.2245 27.4037 20.8311C27.237 20.3433 27.0616 19.8546 26.8425 19.3914C26.6014 18.8806 26.6006 18.7237 26.9912 18.3123C27.4225 17.8581 27.4225 17.8581 26.981 17.3949C26.4887 16.8783 26.4887 16.8783 25.9768 17.3933C25.6738 17.698 25.4602 17.7045 25.0813 17.514C24.6273 17.2865 24.1616 17.0771 23.6857 16.9079C23.2529 16.7543 23.0987 16.5851 23.0948 16.094C23.0901 15.4231 23.0901 15.4231 22.4396 15.4231C21.7735 15.4231 21.7735 15.4231 21.7602 16.1359C21.7516 16.6213 21.6224 16.7543 21.1747 16.9153C20.7262 17.0763 20.2847 17.2709 19.8605 17.4943C19.4198 17.7259 19.2202 17.7201 18.8719 17.3629C18.3428 16.82 18.4915 16.8126 17.9499 17.3736C17.4732 17.8671 17.4755 17.8696 17.9483 18.3763C18.2724 18.7237 18.2825 18.9274 18.0821 19.3618C17.8755 19.8102 17.6806 20.2685 17.5295 20.7399C17.3691 21.2425 17.2274 21.3871 16.721 21.3887C16.1018 21.3912 16.1018 21.3912 16.1018 22.0359C16.1018 22.7824 16.1018 22.7824 16.8008 22.7939C16.8204 22.7939 16.84 22.7939 16.8595 22.7947C17.2102 22.807 17.3832 22.9664 17.5053 23.3023C17.7017 23.8435 17.9154 24.3781 18.1401 24.907C18.2653 25.201 18.2614 25.4605 18.0524 25.7004C17.9279 25.8441 17.7957 25.9812 17.6603 26.1135C17.5358 26.235 17.5194 26.3442 17.6493 26.4748C17.8606 26.6875 18.0634 26.9093 18.2731 27.1236C18.3193 27.1704 18.3804 27.2016 18.4406 27.2452Z" fill="#003BC5"/>
<path d="M13.1901 16.0924C12.7377 15.5577 12.2892 15.0329 11.8469 14.5032C11.5479 14.1451 11.5456 13.7912 11.8305 13.5333C12.1037 13.2861 12.4606 13.3444 12.751 13.6869C13.2504 14.2749 13.7513 14.8605 14.246 15.4526C14.628 15.9092 14.6327 16.3083 14.2569 16.7609C13.7505 17.3694 13.2378 17.9714 12.722 18.5718C12.4426 18.8978 12.0896 18.9364 11.8211 18.6859C11.5487 18.4313 11.551 18.0732 11.832 17.7373C12.2759 17.2076 12.722 16.6796 13.1666 16.1507C13.1729 16.1433 13.1744 16.1318 13.1901 16.0924Z" fill="#003BC5"/>
<path d="M4.66065 16.1121C5.1342 16.6706 5.59758 17.2085 6.05078 17.7555C6.39518 18.171 6.24568 18.7467 5.75804 18.8165C5.58427 18.8412 5.33223 18.7599 5.21326 18.6285C4.63404 17.992 4.07987 17.33 3.53352 16.6615C3.25095 16.3158 3.26191 15.8895 3.54996 15.5405C4.08613 14.8901 4.63247 14.2487 5.18273 13.6114C5.42616 13.3288 5.79718 13.3091 6.04452 13.5416C6.29734 13.7797 6.31221 14.1452 6.06957 14.4466C5.84257 14.7283 5.60462 14.9993 5.37137 15.2752C5.1389 15.5495 4.90643 15.823 4.66065 16.1121Z" fill="#003BC5"/>
<path d="M8.36221 19.3027C7.97084 19.3092 7.67654 18.9512 7.76655 18.5488C8.14852 16.8413 8.53597 15.1356 8.92891 13.4315C9.01657 13.0529 9.33279 12.8443 9.64902 12.9247C9.98951 13.011 10.1727 13.3321 10.0834 13.732C9.70929 15.4099 9.32966 17.0861 8.94691 18.7623C8.86707 19.1113 8.65417 19.2977 8.36221 19.3027Z" fill="#003BC5"/>
<path d="M8.85532 22.7956C9.18955 22.7898 9.46115 23.051 9.47603 23.391C9.4909 23.7334 9.20598 24.0349 8.86863 24.034C8.54145 24.0332 8.27062 23.7573 8.26671 23.4189C8.26279 23.074 8.51953 22.8021 8.85532 22.7956Z" fill="#003BC5"/>
<path d="M20.2002 6.82192C19.3314 6.82192 18.4626 6.82602 17.5945 6.82109C16.4744 6.81452 15.5923 5.90128 15.5892 4.75151C15.586 3.58531 16.4666 2.65482 17.5985 2.64989C19.3259 2.6425 21.0534 2.6425 22.7809 2.64989C23.9237 2.65482 24.7957 3.56807 24.7957 4.74001C24.7949 5.91524 23.9237 6.81617 22.7778 6.82192C21.9176 6.8252 21.0589 6.82192 20.2002 6.82192ZM20.2167 3.92039C20.2167 3.91957 20.2167 3.91792 20.2167 3.9171C19.3682 3.9171 18.5205 3.90971 17.672 3.92285C17.4951 3.92532 17.2987 3.9672 17.1468 4.0559C16.8361 4.2374 16.7187 4.6275 16.8204 4.9905C16.9214 5.35267 17.2306 5.56949 17.6885 5.57113C19.3557 5.57606 21.0229 5.57524 22.6893 5.56949C22.8412 5.56867 23.004 5.54239 23.1441 5.48243C23.4713 5.34282 23.663 4.95107 23.5981 4.60861C23.5214 4.2029 23.2404 3.9286 22.8482 3.92367C21.9716 3.913 21.0941 3.92039 20.2167 3.92039Z" fill="#003BC5"/>
<path d="M12.6015 4.75153C12.5983 5.90869 11.7107 6.82604 10.6 6.82029C9.52454 6.81454 8.62675 5.86762 8.62518 4.73839C8.6244 3.60011 9.53941 2.64416 10.6274 2.64827C11.7264 2.65237 12.6038 3.58779 12.6015 4.75153ZM9.83763 4.73839C9.83842 5.19829 10.1711 5.55472 10.6078 5.56294C11.047 5.57115 11.418 5.19419 11.418 4.73756C11.418 4.27766 11.0571 3.91384 10.6071 3.91959C10.1656 3.92451 9.83685 4.27519 9.83763 4.73839Z" fill="#003BC5"/>
<path d="M3.50147 4.73596C3.50147 3.5829 4.39769 2.64255 5.49273 2.64748C6.57055 2.65241 7.46286 3.58536 7.47695 4.72282C7.49026 5.86273 6.58542 6.81868 5.49038 6.82033C4.38517 6.82279 3.50068 5.8964 3.50147 4.73596ZM5.48334 3.9188C5.04657 3.9188 4.69748 4.27112 4.68887 4.72282C4.67947 5.17862 5.04501 5.56625 5.48334 5.56543C5.91384 5.56543 6.26685 5.20243 6.27311 4.7532C6.28016 4.28344 5.93497 3.9188 5.48334 3.9188Z" fill="#003BC5"/>
<path d="M22.449 18.2901C24.4324 18.2885 26.0668 19.9967 26.0699 22.0737C26.073 24.1548 24.4457 25.8737 22.4686 25.8769C20.4718 25.881 18.8218 24.1597 18.8281 22.0778C18.8351 20.0016 20.4695 18.2917 22.449 18.2901ZM24.8637 22.0704C24.8559 20.6488 23.7749 19.536 22.4114 19.5458C21.0925 19.5557 20.0272 20.7128 20.0366 22.1254C20.0452 23.5035 21.1356 24.6212 22.4631 24.6138C23.807 24.6073 24.8715 23.4797 24.8637 22.0704Z" fill="#003BC5"/>
</svg>
