<svg width="30" height="30" viewBox="0 0 30 30" fill="none" xmlns="http://www.w3.org/2000/svg">
<path d="M5.6247 15.0007C5.6247 10.9904 5.62386 6.98095 5.6247 2.97069C5.6247 1.23788 6.88331 0.000613315 8.64772 0.000613315C12.8868 -0.000204438 17.1267 -0.000204438 21.3658 0.000613315C23.1101 0.00143107 24.3738 1.24115 24.3738 2.95352C24.3746 10.9839 24.3746 19.0134 24.3738 27.0437C24.3738 28.7569 23.1101 29.9991 21.3674 29.9991C17.1175 29.9999 12.8676 30.0007 8.61851 29.9991C6.89751 29.9982 5.62637 28.7503 5.62554 27.0609C5.62387 23.0408 5.6247 19.0207 5.6247 15.0007ZM6.89667 4.9104C6.89667 11.652 6.89667 18.369 6.89667 25.077C12.3176 25.077 17.7159 25.077 23.1085 25.077C23.1085 18.3428 23.1085 11.6331 23.1085 4.9104C17.7001 4.9104 12.3092 4.9104 6.89667 4.9104ZM23.1252 3.65842C23.1252 3.40983 23.1277 3.17677 23.1243 2.94534C23.1093 1.94114 22.3932 1.22724 21.3699 1.22643C17.1217 1.22152 12.8734 1.22234 8.62519 1.22643C7.7096 1.22724 7.02938 1.79395 6.90001 2.67548C6.85327 2.99195 6.8925 3.32069 6.8925 3.65842C12.295 3.65842 17.6851 3.65842 23.1252 3.65842ZM6.87413 26.3372C6.87413 26.5473 6.87413 26.7289 6.87413 26.9112C6.8758 28.0986 7.5602 28.7749 8.76373 28.7757C11.0231 28.7765 13.2824 28.7757 15.5417 28.7757C17.4781 28.7757 19.4152 28.7782 21.3516 28.7741C22.162 28.7724 22.8489 28.321 23.0292 27.6104C23.1318 27.2064 23.1168 26.773 23.156 26.3372C17.6976 26.3372 12.3067 26.3372 6.87413 26.3372Z" fill="#003BC5"/>
<path d="M29.0711 4.89734C28.5369 4.90061 28.1229 4.49664 28.1254 3.97246C28.1279 3.46382 28.5336 3.06475 29.0535 3.06148C29.5885 3.05821 30.0025 3.46218 30 3.98554C29.9967 4.49418 29.5902 4.89407 29.0711 4.89734Z" fill="#003BC5"/>
<path d="M2.19688 24.489C1.66272 24.4931 1.24791 24.0891 1.24958 23.5658C1.25125 23.0563 1.65687 22.6573 2.17601 22.6532C2.71184 22.6491 3.12582 23.053 3.12332 23.5756C3.12165 24.0851 2.71601 24.4849 2.19688 24.489Z" fill="#003BC5"/>
<path d="M3.73762 4.28644C4.09651 4.28154 4.37194 4.54404 4.37361 4.89403C4.37528 5.24485 4.10319 5.51144 3.74513 5.5098C3.40043 5.50817 3.13336 5.25303 3.12501 4.91693C3.11666 4.56366 3.38124 4.29135 3.73762 4.28644Z" fill="#003BC5"/>
<path d="M1.24876 11.634C1.24792 11.984 0.9725 12.2481 0.614445 12.2432C0.258059 12.2383 -0.00735611 11.9668 0.000155532 11.6143C0.00766717 11.2782 0.273081 11.0231 0.618617 11.0206C0.977506 11.0182 1.24959 11.2831 1.24876 11.634Z" fill="#003BC5"/>
<path d="M28.1237 12.2571C28.1179 12.6054 27.8383 12.8655 27.4786 12.8565C27.1238 12.8475 26.8626 12.5703 26.8751 12.217C26.8876 11.8817 27.1572 11.6315 27.5036 11.6331C27.8617 11.6356 28.1296 11.9054 28.1237 12.2571Z" fill="#003BC5"/>
<path d="M28.7489 25.0966C28.7505 25.4475 28.4793 25.7141 28.1212 25.7132C27.764 25.7116 27.4952 25.4426 27.5003 25.0909C27.5053 24.7532 27.7673 24.4956 28.112 24.4907C28.4709 24.485 28.7472 24.7475 28.7489 25.0966Z" fill="#003BC5"/>
<path d="M15.0151 18.3674C16.8688 18.3674 18.7216 18.369 20.5753 18.3657C20.8533 18.3649 21.1012 18.454 21.1729 18.7108C21.2272 18.903 21.2021 19.1532 21.1187 19.3372C21.0127 19.5719 20.7506 19.594 20.4969 19.594C17.9563 19.5899 15.4157 19.5915 12.8751 19.5915C11.7717 19.5915 10.6675 19.5915 9.56411 19.5915C9.0166 19.5915 8.74618 19.3855 8.75035 18.9717C8.75453 18.5636 9.02327 18.3674 9.57997 18.3674C11.3919 18.3674 13.2031 18.3674 15.0151 18.3674Z" fill="#003BC5"/>
<path d="M14.9826 22.0399C13.1289 22.0399 11.276 22.0382 9.42228 22.0415C9.131 22.0423 8.87895 21.9401 8.81301 21.6678C8.76627 21.4748 8.78797 21.1951 8.90482 21.0536C9.02333 20.9105 9.29625 20.8271 9.5024 20.8255C12.366 20.8116 15.2288 20.8157 18.0924 20.8157C18.8836 20.8157 19.6748 20.8157 20.4661 20.8157C20.9819 20.8157 21.2531 21.0316 21.2481 21.4355C21.2439 21.8264 20.9743 22.039 20.4794 22.039C18.6474 22.0407 16.8154 22.0399 14.9826 22.0399Z" fill="#003BC5"/>
<path d="M13.1389 13.4698C14.3566 13.4698 15.5752 13.469 16.7929 13.4706C17.2294 13.4714 17.4948 13.7004 17.499 14.0725C17.5031 14.4487 17.2386 14.6923 16.8112 14.6932C14.3541 14.6948 11.8978 14.6923 9.44065 14.6964C9.15187 14.6972 8.93237 14.6016 8.80801 14.3407C8.69617 14.1068 8.70785 13.8566 8.90315 13.6922C9.04588 13.572 9.26621 13.4821 9.45317 13.4796C10.6817 13.4608 11.9103 13.4698 13.1389 13.4698Z" fill="#003BC5"/>
<path d="M13.1071 17.1423C11.8994 17.1423 10.6917 17.1432 9.48486 17.1423C9.02081 17.1423 8.75374 16.9199 8.7504 16.5372C8.74706 16.1496 9.01246 15.9198 9.47151 15.9198C11.9078 15.919 14.3432 15.919 16.7795 15.9198C17.2369 15.9198 17.5031 16.1529 17.499 16.5397C17.4939 16.9216 17.226 17.1423 16.7611 17.1423C15.5434 17.1432 14.3257 17.1423 13.1071 17.1423Z" fill="#003BC5"/>
<path d="M11.8736 11.0199C11.3912 11.0158 11.1066 10.5546 11.3252 10.1032C11.5873 9.56099 11.8686 9.02781 12.1423 8.49136C12.472 7.84534 12.8 7.19932 13.1339 6.55574C13.3417 6.15423 13.6764 6.01684 14.0211 6.18121C14.3816 6.35294 14.4718 6.69558 14.2573 7.11918C13.6705 8.2763 13.0788 9.43014 12.4929 10.5864C12.3627 10.8432 12.1857 11.0223 11.8736 11.0199Z" fill="#003BC5"/>
<path d="M16.015 8.56331C15.7296 8.29917 15.4742 8.07675 15.2346 7.83878C14.9367 7.54357 14.9191 7.17231 15.1745 6.91554C15.4324 6.65631 15.8155 6.6653 16.1177 6.95315C16.5133 7.33014 16.9047 7.71039 17.287 8.09964C17.5908 8.40957 17.5891 8.73504 17.2828 9.0466C16.8997 9.43504 16.5091 9.81692 16.1135 10.1931C15.813 10.4785 15.4257 10.4826 15.1704 10.2217C14.9241 9.96903 14.9367 9.60431 15.2171 9.32055C15.4558 9.07931 15.7095 8.85198 16.015 8.56331Z" fill="#003BC5"/>
<path d="M9.61336 8.57638C9.89964 8.84297 10.1534 9.06621 10.3929 9.305C10.6892 9.60184 10.7042 9.97311 10.4472 10.2282C10.1876 10.4858 9.80699 10.4744 9.50486 10.1857C9.11759 9.8161 8.7345 9.44075 8.35725 9.06131C8.03508 8.73748 8.02924 8.41119 8.34473 8.09309C8.72865 7.70547 9.11926 7.32358 9.51487 6.94742C9.80449 6.67183 10.1767 6.65957 10.4355 6.90081C10.7026 7.15022 10.6975 7.52966 10.4071 7.82405C10.1676 8.0661 9.91383 8.29262 9.61336 8.57638Z" fill="#003BC5"/>
</svg>
