<svg width="30" height="30" viewBox="0 0 30 30" fill="none" xmlns="http://www.w3.org/2000/svg">
<path d="M0 24.7287C0 18.713 0 12.6965 0 6.6808C0.342765 5.62951 1.0776 5.25612 2.16459 5.26239C7.41641 5.29057 12.669 5.27491 17.9216 5.27491C18.0351 5.27491 18.1486 5.27491 18.2816 5.27491C18.2816 4.27373 18.2793 3.30855 18.2824 2.34338C18.2863 1.03378 19.3138 0.00363077 20.6223 0.00206519C22.9653 -0.00106595 25.3083 -0.000283166 27.6513 0.00206519C28.9637 0.00363077 29.9975 1.02986 29.9982 2.33555C30.0006 7.1489 30.0006 11.9623 29.9982 16.7756C29.9975 18.0649 28.9613 19.0958 27.6724 19.102C27.2851 19.1044 26.8977 19.102 26.4837 19.102C26.4837 19.2375 26.4837 19.3424 26.4837 19.4473C26.4837 21.0676 26.4845 22.6888 26.4837 24.3091C26.4829 25.3839 25.7371 26.1323 24.6666 26.133C22.3431 26.1338 20.0197 26.133 17.6962 26.133C17.5836 26.133 17.4709 26.133 17.3574 26.133C17.3574 27.0505 17.3574 27.9248 17.3574 28.829C17.4756 28.829 17.5804 28.829 17.6845 28.829C18.5336 28.829 19.3835 28.8266 20.2326 28.8297C20.6246 28.8313 20.8688 29.0794 20.8594 29.4419C20.8516 29.726 20.6669 29.874 20.4493 30C15.6451 30 10.8402 30 6.03596 30C5.67441 29.7706 5.55468 29.5374 5.64467 29.2407C5.73076 28.9565 5.95301 28.829 6.3662 28.829C7.18477 28.829 8.00412 28.829 8.82269 28.829C8.92521 28.829 9.02772 28.829 9.12789 28.829C9.12789 27.91 9.12789 27.0356 9.12789 26.133C9.00033 26.133 8.88608 26.133 8.77182 26.133C6.43194 26.133 4.09206 26.1354 1.75296 26.1315C1.05725 26.1307 0.547016 25.7996 0.205816 25.2039C0.118951 25.0567 0.067301 24.8884 0 24.7287ZM18.2808 6.44596C18.1486 6.44596 18.0523 6.44596 17.9561 6.44596C12.6252 6.44596 7.29355 6.44596 1.96268 6.44596C1.37028 6.44596 1.17151 6.64479 1.17151 7.23814C1.17151 11.8668 1.17151 16.4954 1.17151 21.124C1.17151 21.2265 1.17151 21.3299 1.17151 21.4473C1.32959 21.4473 1.44619 21.4473 1.56201 21.4473C4.50134 21.4473 7.43989 21.4473 10.3792 21.4473C10.4669 21.4473 10.5553 21.4434 10.6429 21.4488C10.9693 21.47 11.1986 21.7244 11.1907 22.0508C11.1821 22.4054 10.9333 22.6175 10.5185 22.6175C7.52128 22.6183 4.52325 22.6183 1.52601 22.6183C1.41332 22.6183 1.30063 22.6183 1.19733 22.6183C1.18325 22.6778 1.17542 22.6966 1.17542 22.7146C1.17385 23.1733 1.17229 23.6328 1.17229 24.0915C1.17229 24.7898 1.34289 24.9628 2.03155 24.9628C9.51057 24.9628 16.9904 24.9628 24.4694 24.9628C24.557 24.9628 24.6455 24.9675 24.7331 24.9589C25.0571 24.9275 25.2934 24.7185 25.3036 24.3968C25.3224 23.8144 25.3091 23.2305 25.3091 22.6183C25.1815 22.6183 25.0767 22.6183 24.9718 22.6183C23.2243 22.6183 21.4761 22.6183 19.7286 22.6183C18.4592 22.6183 17.1899 22.6207 15.9206 22.6168C15.491 22.616 15.2116 22.2786 15.3047 21.8888C15.3728 21.6038 15.6068 21.4473 15.9754 21.4473C18.9726 21.4465 21.9706 21.4473 24.9679 21.4473C25.0798 21.4473 25.1917 21.4473 25.2966 21.4473C25.2966 20.6418 25.2966 19.8841 25.2966 19.1028C25.1745 19.1028 25.0696 19.1028 24.964 19.1028C23.5483 19.1028 22.1326 19.1036 20.717 19.1028C19.2864 19.102 18.2832 18.1032 18.2824 16.6778C18.2816 13.3971 18.2824 10.1157 18.2824 6.83501C18.2808 6.71915 18.2808 6.6033 18.2808 6.44596ZM28.8275 14.403C28.8275 14.2863 28.8275 14.1908 28.8275 14.0946C28.8275 10.2386 28.8275 6.38256 28.8275 2.52655C28.8275 1.642 28.3572 1.17311 27.4729 1.17311C25.2574 1.17233 23.0412 1.17233 20.8257 1.17311C19.9187 1.17311 19.4531 1.63574 19.4531 2.53829C19.4523 6.3849 19.4531 10.2307 19.4531 14.0773C19.4531 14.1815 19.4531 14.2863 19.4531 14.4038C22.5834 14.403 25.6839 14.403 28.8275 14.403ZM28.8252 15.6061C25.6847 15.6061 22.5787 15.6061 19.4523 15.6061C19.4523 15.711 19.4523 15.7971 19.4523 15.8832C19.4531 16.1956 19.4382 16.5087 19.4594 16.8194C19.4969 17.3729 19.8632 17.7784 20.4086 17.8981C20.5033 17.9185 20.6011 17.9302 20.6982 17.9302C22.9911 17.9318 25.284 17.9341 27.5762 17.9302C28.2774 17.9287 28.7853 17.4692 28.8213 16.796C28.8424 16.4085 28.8252 16.0179 28.8252 15.6061ZM16.1554 28.818C16.1554 27.9092 16.1554 27.0348 16.1554 26.1534C14.2036 26.1534 12.2676 26.1534 10.333 26.1534C10.333 27.0536 10.333 27.935 10.333 28.818C12.2832 28.818 14.2122 28.818 16.1554 28.818Z" fill="#003BC5"/>
<path d="M13.8268 22.0289C13.8283 22.3647 13.5739 22.6199 13.2381 22.6184C12.9031 22.6168 12.651 22.3592 12.6557 22.0226C12.6604 21.6994 12.9062 21.4528 13.2295 21.4481C13.5669 21.4426 13.8252 21.6947 13.8268 22.0289Z" fill="#003BC5"/>
<path d="M24.1403 4.68781C23.8577 4.68781 23.5743 4.69094 23.2917 4.68703C22.916 4.68155 22.6726 4.44437 22.6757 4.09524C22.6788 3.75865 22.9184 3.52224 23.2769 3.51833C23.8522 3.51285 24.4276 3.51285 25.0029 3.51833C25.3606 3.52146 25.601 3.75865 25.6049 4.09446C25.608 4.44358 25.3646 4.68077 24.9888 4.68703C24.7055 4.69173 24.4229 4.68781 24.1403 4.68781Z" fill="#003BC5"/>
</svg>
