<svg width="35" height="26" viewBox="0 0 35 26" fill="none" xmlns="http://www.w3.org/2000/svg">
<path d="M17.2381 13.5995C17.2381 14.7185 16.8905 15.8489 16.1954 16.9908C15.5004 18.1098 14.4577 19.1603 13.0676 20.1423C11.6774 21.1243 9.97444 21.935 7.9587 22.5744C8.05138 23.1454 8.21357 23.6478 8.44526 24.0817C8.53794 24.2644 8.70012 24.4585 8.93182 24.664C9.18668 24.8924 9.31411 25.0294 9.31411 25.0751C9.31411 25.2806 9.1751 25.4862 8.89706 25.6917C8.6422 25.8972 8.37575 26 8.09772 26C7.68067 26 7.30996 25.7374 6.98558 25.2121C6.80023 24.8924 6.64963 24.5156 6.53378 24.0817C6.41793 23.6706 6.34842 23.3052 6.32525 22.9855C6.27892 22.9855 6.19782 22.9855 6.08198 22.9855C5.96613 23.0083 5.79236 23.0198 5.56066 23.0198C3.82296 23.0198 2.45596 22.289 1.45967 20.8274C0.486558 19.343 0 17.4589 0 15.1752C0 12.2064 0.787761 9.38603 2.36328 6.7141C3.96197 4.01932 6.09356 1.91831 8.75805 0.411065C8.9434 0.274043 9.15193 0.171277 9.38362 0.102765C9.63848 0.0342549 9.83543 0 9.97444 0C10.2061 0 10.4262 0.0799294 10.6348 0.239788C10.8433 0.37681 10.9476 0.570926 10.9476 0.822134C10.9476 1.25604 10.6464 1.64427 10.044 1.98682C7.03192 3.6996 4.87717 5.62933 3.57968 7.77602C2.30536 9.9227 1.6682 12.4234 1.6682 15.278C1.6682 16.9451 2.02733 18.3724 2.74558 19.5599C3.46383 20.7246 4.65706 21.307 6.32525 21.307C6.53378 19.0461 7.00875 17.0935 7.75018 15.4493C8.51477 13.805 9.44154 12.5604 10.5305 11.7154C11.6426 10.8704 12.8127 10.448 14.0407 10.448C15.0833 10.448 15.8711 10.7448 16.404 11.3386C16.96 11.9324 17.2381 12.686 17.2381 13.5995ZM15.6741 13.9078C15.6741 12.6746 15.0949 12.058 13.9364 12.058C12.4536 12.058 11.1677 12.8458 10.0787 14.4216C8.98974 15.9745 8.27149 18.1897 7.92395 21.0672C9.31411 20.7246 10.6 20.1537 11.7817 19.3544C12.9633 18.5323 13.9017 17.6302 14.5967 16.6482C15.315 15.6662 15.6741 14.7527 15.6741 13.9078Z" fill="white"/>
<path d="M35 13.5995C35 14.7185 34.6525 15.8489 33.9574 16.9908C33.2623 18.1098 32.2197 19.1603 30.8295 20.1423C29.4393 21.1243 27.7364 21.935 25.7206 22.5744C25.8133 23.1454 25.9755 23.6478 26.2072 24.0817C26.2999 24.2644 26.4621 24.4585 26.6938 24.664C26.9486 24.8924 27.0761 25.0294 27.0761 25.0751C27.0761 25.2806 26.937 25.4862 26.659 25.6917C26.4041 25.8972 26.1377 26 25.8597 26C25.4426 26 25.0719 25.7374 24.7475 25.2121C24.5622 24.8924 24.4116 24.5156 24.2957 24.0817C24.1799 23.6706 24.1104 23.3052 24.0872 22.9855C24.0409 22.9855 23.9598 22.9855 23.8439 22.9855C23.7281 23.0083 23.5543 23.0198 23.3226 23.0198C21.5849 23.0198 20.2179 22.289 19.2216 20.8274C18.2485 19.343 17.7619 17.4589 17.7619 15.1752C17.7619 12.2064 18.5497 9.38603 20.1252 6.7141C21.7239 4.01932 23.8555 1.91831 26.52 0.411065C26.7053 0.274043 26.9139 0.171277 27.1456 0.102765C27.4004 0.0342549 27.5974 0 27.7364 0C27.9681 0 28.1882 0.0799294 28.3967 0.239788C28.6052 0.37681 28.7095 0.570926 28.7095 0.822134C28.7095 1.25604 28.4083 1.64427 27.8059 1.98682C24.7939 3.6996 22.6391 5.62933 21.3416 7.77602C20.0673 9.9227 19.4301 12.4234 19.4301 15.278C19.4301 16.9451 19.7893 18.3724 20.5075 19.5599C21.2258 20.7246 22.419 21.307 24.0872 21.307C24.2957 19.0461 24.7707 17.0935 25.5121 15.4493C26.2767 13.805 27.2035 12.5604 28.2924 11.7154C29.4046 10.8704 30.5746 10.448 31.8026 10.448C32.8452 10.448 33.633 10.7448 34.1659 11.3386C34.722 11.9324 35 12.686 35 13.5995ZM33.4361 13.9078C33.4361 12.6746 32.8568 12.058 31.6984 12.058C30.2155 12.058 28.9296 12.8458 27.8406 14.4216C26.7517 15.9745 26.0334 18.1897 25.6859 21.0672C27.0761 20.7246 28.362 20.1537 29.5436 19.3544C30.7252 18.5323 31.6636 17.6302 32.3587 16.6482C33.0769 15.6662 33.4361 14.7527 33.4361 13.9078Z" fill="white"/>
</svg>
