<svg width="17" height="21" viewBox="0 0 17 21" fill="none" xmlns="http://www.w3.org/2000/svg">
<path d="M5.88185 0.713787C5.50069 1.04379 4.97102 0.880453 4.74585 1.35262C5.04319 1.57979 5.31652 1.26362 5.57519 1.31929C5.93669 1.39795 6.67818 1.27062 6.09185 2.04495C6.04852 2.10212 5.94735 2.15962 6.07018 2.22029C7.08518 2.72145 6.32518 3.36612 6.16602 3.91179C5.99935 4.48195 5.74452 5.02845 5.73118 5.63245C5.71235 6.47778 5.70418 7.32378 5.71552 8.16911C5.72952 9.20595 5.89052 9.33945 6.91885 9.24161C8.69252 9.07295 9.93735 7.79478 9.89418 6.01712C9.85868 4.55979 10.1484 3.16562 10.4765 1.77495C10.6455 1.05829 11.0954 0.483953 11.8917 0.346953C12.829 0.185787 14.1892 0.762286 14.5387 1.59479C15.1265 2.99478 15.6562 4.44312 15.8644 5.94762C16.2754 8.91828 16.1907 11.8818 15.3584 14.7933C15.0332 15.9306 14.5894 17.0391 13.9024 17.9776C12.9992 19.2109 11.6427 19.7666 10.1297 19.9246C8.21769 20.1246 6.37585 20.0618 4.77785 18.7579C4.42785 18.4721 4.20652 18.0986 3.96835 17.7689C2.39868 15.5968 0.518353 13.5563 0.146187 10.7563C-0.282314 7.53245 0.21285 4.43962 1.87485 1.59962C2.45135 0.613954 3.23952 -0.126046 4.51568 0.0179538C5.03652 0.0772871 5.52169 0.232121 5.88185 0.713787ZM10.9044 18.8339C10.0144 18.6687 9.09532 18.7785 8.26935 19.1486C9.17452 19.2623 10.076 19.3634 10.9044 18.8339Z" fill="#003BC5"/>
</svg>
