<svg width="11" height="11" viewBox="0 0 11 11" fill="none" xmlns="http://www.w3.org/2000/svg">
<path d="M3.25924 3.87586C3.76724 2.72403 3.9974 1.53486 4.89407 0.695029C5.01504 0.550577 5.15622 0.424332 5.31324 0.320195C5.69974 0.133362 6.19007 -0.169305 6.52441 0.119028C6.81424 0.369028 6.76641 0.897195 6.61874 1.3272C6.54791 1.53353 6.28407 1.81719 6.58674 1.96936C6.84258 2.09803 6.98924 1.76636 7.15341 1.59586C7.24757 1.49753 7.31791 1.37503 7.41691 1.28269C7.60158 1.11053 7.69058 0.737361 8.03841 0.874861C8.18383 0.919342 8.31375 1.00392 8.41328 1.1189C8.5128 1.23387 8.57789 1.37457 8.60108 1.52486C8.63891 1.84153 8.63608 2.13469 9.12808 1.92053C9.37808 1.81186 9.55291 2.1372 9.68858 2.32053C11.1866 4.3457 11.4966 6.44136 9.54958 8.50536C8.95441 9.13619 8.34275 9.75136 7.73958 10.3747C7.40791 10.7175 7.00508 10.713 6.60291 10.5704C6.14908 10.4094 6.63841 10.0409 6.43624 9.74603C5.97441 10.488 5.53007 10.3895 4.9394 9.85436C4.57274 9.5227 4.13441 9.10819 3.44557 9.38569C3.1919 9.48803 2.70924 9.20603 2.41307 8.98786C0.929732 7.89603 0.0360631 6.45036 0.000563061 4.56936C-0.013437 3.82336 0.2314 3.16186 0.985901 2.82586C1.12678 2.76057 1.27859 2.72213 1.43356 2.71253C1.77856 3.49036 2.78673 3.17936 3.25924 3.87586Z" fill="#003BC5"/>
</svg>
