<svg width="19" height="21" viewBox="0 0 19 21" fill="none" xmlns="http://www.w3.org/2000/svg">
<path d="M18.7021 8.36591C18.7806 12.1357 17.6458 14.9106 16.1091 17.5159C15.0321 19.3421 13.2733 20.2558 11.1516 20.3641C9.3451 20.4563 7.56576 20.3156 5.8426 19.6604C4.54376 19.1666 3.68243 18.2129 2.96376 17.1121C1.62759 15.0654 0.058756 13.0941 0.00458932 10.4914C-0.0630774 7.2414 0.606423 4.18457 2.75309 1.61857C3.66176 0.532232 4.74059 -0.196934 6.30776 0.0472327C7.86277 0.289733 8.4911 2.18373 8.47877 3.3184C8.47343 3.84374 8.0351 4.10807 7.77643 4.41657C6.59927 5.82024 6.35976 7.57674 5.8036 9.21507C5.68926 9.55224 5.9216 9.64524 6.1801 9.70141C7.85726 10.0659 9.3801 9.95841 10.5211 8.42907C11.1258 7.61874 11.7801 6.85024 12.1798 5.9059C12.2734 5.69586 12.3244 5.46935 12.3299 5.23946C12.3354 5.00957 12.2953 4.78087 12.2119 4.56657C12.0143 3.9999 11.6146 3.30224 12.6111 2.99223C12.8148 2.9289 12.7731 2.7554 12.6778 2.58957C12.2599 1.86374 12.5013 1.15707 13.2886 0.774233C14.8836 -0.000934045 17.3621 1.41557 17.5161 3.18574C17.514 3.3754 17.5575 3.5628 17.6431 3.73207C18.7498 5.3454 18.5331 7.22507 18.7021 8.36591ZM9.51877 19.5742C10.6364 19.8486 11.8171 19.6708 12.8044 19.0796C11.6671 18.9419 10.6044 19.3436 9.51827 19.5742H9.51877Z" fill="#18DFB4"/>
</svg>
